G04 #@! TF.FileFunction,Legend,Top*
%FSLAX46Y46*%
G04 Gerber Fmt 4.6, Leading zero omitted, Abs format (unit mm)*
G04 Created by KiCad (PCBNEW 4.0.4+e1-6308~48~ubuntu16.04.1-stable) date Sun Oct  9 20:08:59 2016*
%MOMM*%
%LPD*%
G01*
G04 APERTURE LIST*
%ADD10C,0.100000*%
%ADD11C,0.300000*%
%ADD12C,0.127000*%
%ADD13C,0.304800*%
%ADD14C,0.150000*%
%ADD15C,0.177800*%
%ADD16C,0.203200*%
%ADD17C,0.285750*%
%ADD18C,0.254000*%
G04 APERTURE END LIST*
D10*
D11*
X181337857Y-98455238D02*
X181337857Y-97971428D01*
X180914524Y-98273809D02*
X182003095Y-98273809D01*
X182124048Y-98213333D01*
X182184524Y-98092380D01*
X182184524Y-97971428D01*
X182184524Y-97366666D02*
X182124048Y-97487619D01*
X182063571Y-97548095D01*
X181942619Y-97608571D01*
X181579762Y-97608571D01*
X181458810Y-97548095D01*
X181398333Y-97487619D01*
X181337857Y-97366666D01*
X181337857Y-97185238D01*
X181398333Y-97064286D01*
X181458810Y-97003809D01*
X181579762Y-96943333D01*
X181942619Y-96943333D01*
X182063571Y-97003809D01*
X182124048Y-97064286D01*
X182184524Y-97185238D01*
X182184524Y-97366666D01*
X181337857Y-96399047D02*
X182184524Y-96399047D01*
X181458810Y-96399047D02*
X181398333Y-96338571D01*
X181337857Y-96217618D01*
X181337857Y-96036190D01*
X181398333Y-95915238D01*
X181519286Y-95854761D01*
X182184524Y-95854761D01*
X182124048Y-94766190D02*
X182184524Y-94887142D01*
X182184524Y-95129047D01*
X182124048Y-95249999D01*
X182003095Y-95310475D01*
X181519286Y-95310475D01*
X181398333Y-95249999D01*
X181337857Y-95129047D01*
X181337857Y-94887142D01*
X181398333Y-94766190D01*
X181519286Y-94705713D01*
X181640238Y-94705713D01*
X181761190Y-95310475D01*
X168970477Y-111487857D02*
X169272858Y-112334524D01*
X169575238Y-111487857D01*
X170240477Y-112334524D02*
X170119524Y-112274048D01*
X170059048Y-112213571D01*
X169998572Y-112092619D01*
X169998572Y-111729762D01*
X170059048Y-111608810D01*
X170119524Y-111548333D01*
X170240477Y-111487857D01*
X170421905Y-111487857D01*
X170542857Y-111548333D01*
X170603334Y-111608810D01*
X170663810Y-111729762D01*
X170663810Y-112092619D01*
X170603334Y-112213571D01*
X170542857Y-112274048D01*
X170421905Y-112334524D01*
X170240477Y-112334524D01*
X171389525Y-112334524D02*
X171268572Y-112274048D01*
X171208096Y-112153095D01*
X171208096Y-111064524D01*
X160745714Y-111487857D02*
X160745714Y-112515952D01*
X160685237Y-112636905D01*
X160624761Y-112697381D01*
X160503809Y-112757857D01*
X160322380Y-112757857D01*
X160201428Y-112697381D01*
X160745714Y-112274048D02*
X160624761Y-112334524D01*
X160382857Y-112334524D01*
X160261904Y-112274048D01*
X160201428Y-112213571D01*
X160140952Y-112092619D01*
X160140952Y-111729762D01*
X160201428Y-111608810D01*
X160261904Y-111548333D01*
X160382857Y-111487857D01*
X160624761Y-111487857D01*
X160745714Y-111548333D01*
X161894762Y-112334524D02*
X161894762Y-111669286D01*
X161834285Y-111548333D01*
X161713333Y-111487857D01*
X161471428Y-111487857D01*
X161350476Y-111548333D01*
X161894762Y-112274048D02*
X161773809Y-112334524D01*
X161471428Y-112334524D01*
X161350476Y-112274048D01*
X161290000Y-112153095D01*
X161290000Y-112032143D01*
X161350476Y-111911190D01*
X161471428Y-111850714D01*
X161773809Y-111850714D01*
X161894762Y-111790238D01*
X162499524Y-112334524D02*
X162499524Y-111487857D01*
X162499524Y-111064524D02*
X162439048Y-111125000D01*
X162499524Y-111185476D01*
X162560000Y-111125000D01*
X162499524Y-111064524D01*
X162499524Y-111185476D01*
X163104286Y-111487857D02*
X163104286Y-112334524D01*
X163104286Y-111608810D02*
X163164762Y-111548333D01*
X163285715Y-111487857D01*
X163467143Y-111487857D01*
X163588095Y-111548333D01*
X163648572Y-111669286D01*
X163648572Y-112334524D01*
D12*
X154943173Y-97790000D02*
G75*
G03X154943173Y-97790000I-2543173J0D01*
G01*
X174625000Y-107950000D02*
G75*
G03X174625000Y-107950000I-3175000J0D01*
G01*
X167640000Y-107950000D02*
G75*
G03X167640000Y-107950000I-3175000J0D01*
G01*
D13*
X171069000Y-95504000D02*
X178181000Y-95504000D01*
X178181000Y-95504000D02*
X178181000Y-97536000D01*
X178181000Y-97536000D02*
X171069000Y-97536000D01*
X171069000Y-97536000D02*
X171069000Y-95504000D01*
X171069000Y-96012000D02*
X171577000Y-95504000D01*
D14*
X159746990Y-107597695D02*
G75*
G03X160450000Y-107110000I-996990J2187695D01*
G01*
X159746990Y-103222305D02*
G75*
G02X160450000Y-103710000I-996990J-2187695D01*
G01*
X160450000Y-107110000D02*
X160450000Y-103710000D01*
X157756873Y-107594879D02*
G75*
G02X156350000Y-105410000I993127J2184879D01*
G01*
X157756873Y-103225121D02*
G75*
G03X156350000Y-105410000I993127J-2184879D01*
G01*
X178181000Y-99949000D02*
X178689000Y-100457000D01*
X179197000Y-99949000D02*
X178689000Y-99441000D01*
X178689000Y-99441000D02*
X178181000Y-99949000D01*
X183261000Y-102235000D02*
G75*
G03X183261000Y-102235000I-2286000J0D01*
G01*
X183725000Y-102235000D02*
G75*
G03X183725000Y-102235000I-2750000J0D01*
G01*
X183769000Y-110871000D02*
X183261000Y-110363000D01*
X182753000Y-110871000D02*
X183261000Y-111379000D01*
X183261000Y-111379000D02*
X183769000Y-110871000D01*
X183261000Y-108585000D02*
G75*
G03X183261000Y-108585000I-2286000J0D01*
G01*
X183725000Y-108585000D02*
G75*
G03X183725000Y-108585000I-2750000J0D01*
G01*
D13*
X158750000Y-93345000D02*
X158242000Y-93345000D01*
X151130000Y-93345000D02*
X151638000Y-93345000D01*
X151638000Y-93345000D02*
X151638000Y-94361000D01*
X151638000Y-94361000D02*
X158242000Y-94361000D01*
X158242000Y-94361000D02*
X158242000Y-92329000D01*
X158242000Y-92329000D02*
X151638000Y-92329000D01*
X151638000Y-92329000D02*
X151638000Y-93345000D01*
X158242000Y-93853000D02*
X157734000Y-94361000D01*
X158750000Y-96520000D02*
X159258000Y-96520000D01*
X166370000Y-96520000D02*
X165862000Y-96520000D01*
X165862000Y-96520000D02*
X165862000Y-95504000D01*
X165862000Y-95504000D02*
X159258000Y-95504000D01*
X159258000Y-95504000D02*
X159258000Y-97536000D01*
X159258000Y-97536000D02*
X165862000Y-97536000D01*
X165862000Y-97536000D02*
X165862000Y-96520000D01*
X159258000Y-96012000D02*
X159766000Y-95504000D01*
X158750000Y-99695000D02*
X159258000Y-99695000D01*
X166370000Y-99695000D02*
X165862000Y-99695000D01*
X165862000Y-99695000D02*
X165862000Y-98679000D01*
X165862000Y-98679000D02*
X159258000Y-98679000D01*
X159258000Y-98679000D02*
X159258000Y-100711000D01*
X159258000Y-100711000D02*
X165862000Y-100711000D01*
X165862000Y-100711000D02*
X165862000Y-99695000D01*
X159258000Y-99187000D02*
X159766000Y-98679000D01*
X169545000Y-102870000D02*
X169037000Y-102870000D01*
X161925000Y-102870000D02*
X162433000Y-102870000D01*
X162433000Y-102870000D02*
X162433000Y-103886000D01*
X162433000Y-103886000D02*
X169037000Y-103886000D01*
X169037000Y-103886000D02*
X169037000Y-101854000D01*
X169037000Y-101854000D02*
X162433000Y-101854000D01*
X162433000Y-101854000D02*
X162433000Y-102870000D01*
X169037000Y-103378000D02*
X168529000Y-103886000D01*
X168275000Y-93345000D02*
X167767000Y-93345000D01*
X160655000Y-93345000D02*
X161163000Y-93345000D01*
X161163000Y-93345000D02*
X161163000Y-94361000D01*
X161163000Y-94361000D02*
X167767000Y-94361000D01*
X167767000Y-94361000D02*
X167767000Y-92329000D01*
X167767000Y-92329000D02*
X161163000Y-92329000D01*
X161163000Y-92329000D02*
X161163000Y-93345000D01*
X167767000Y-93853000D02*
X167259000Y-94361000D01*
X158750000Y-110490000D02*
X158242000Y-110490000D01*
X151130000Y-110490000D02*
X151638000Y-110490000D01*
X151638000Y-110490000D02*
X151638000Y-111506000D01*
X151638000Y-111506000D02*
X158242000Y-111506000D01*
X158242000Y-111506000D02*
X158242000Y-109474000D01*
X158242000Y-109474000D02*
X151638000Y-109474000D01*
X151638000Y-109474000D02*
X151638000Y-110490000D01*
X158242000Y-110998000D02*
X157734000Y-111506000D01*
D14*
X170180000Y-93345000D02*
X170942000Y-93345000D01*
X170942000Y-93345000D02*
X170942000Y-94361000D01*
X170942000Y-94361000D02*
X177038000Y-94361000D01*
X177038000Y-94361000D02*
X177038000Y-93345000D01*
X177038000Y-93345000D02*
X177800000Y-93345000D01*
X177038000Y-93345000D02*
X177038000Y-92329000D01*
X177038000Y-92329000D02*
X170942000Y-92329000D01*
X170942000Y-92329000D02*
X170942000Y-93345000D01*
X171450000Y-94361000D02*
X171450000Y-92329000D01*
X171704000Y-92329000D02*
X171704000Y-94361000D01*
D12*
X177165000Y-101600000D02*
G75*
G03X177165000Y-101600000I-3175000J0D01*
G01*
D13*
X153670000Y-107950000D02*
X151130000Y-107950000D01*
X151130000Y-107950000D02*
X151130000Y-102870000D01*
X151130000Y-102870000D02*
X153670000Y-102870000D01*
X153670000Y-102870000D02*
X153670000Y-107950000D01*
X185420000Y-99695000D02*
X182880000Y-99695000D01*
X182880000Y-99695000D02*
X182880000Y-92075000D01*
X182880000Y-92075000D02*
X185420000Y-92075000D01*
X185420000Y-92075000D02*
X185420000Y-99695000D01*
X182880000Y-97155000D02*
X185420000Y-97155000D01*
X165100000Y-113030000D02*
X165100000Y-115570000D01*
X165100000Y-115570000D02*
X157480000Y-115570000D01*
X157480000Y-115570000D02*
X157480000Y-113030000D01*
X157480000Y-113030000D02*
X165100000Y-113030000D01*
X162560000Y-115570000D02*
X162560000Y-113030000D01*
X175514000Y-111506000D02*
X175514000Y-104394000D01*
X175514000Y-104394000D02*
X177546000Y-104394000D01*
X177546000Y-104394000D02*
X177546000Y-111506000D01*
X177546000Y-111506000D02*
X175514000Y-111506000D01*
X176022000Y-111506000D02*
X175514000Y-110998000D01*
X186690000Y-113030000D02*
X186690000Y-115570000D01*
X186690000Y-115570000D02*
X181610000Y-115570000D01*
X181610000Y-115570000D02*
X181610000Y-113030000D01*
X181610000Y-113030000D02*
X186690000Y-113030000D01*
X173990000Y-113030000D02*
X173990000Y-115570000D01*
X173990000Y-115570000D02*
X166370000Y-115570000D01*
X166370000Y-115570000D02*
X166370000Y-113030000D01*
X166370000Y-113030000D02*
X173990000Y-113030000D01*
X171450000Y-115570000D02*
X171450000Y-113030000D01*
X175260000Y-115570000D02*
X175260000Y-113030000D01*
X175260000Y-113030000D02*
X180340000Y-113030000D01*
X180340000Y-113030000D02*
X180340000Y-115570000D01*
X180340000Y-115570000D02*
X175260000Y-115570000D01*
D12*
X152273000Y-99840143D02*
X152236714Y-99876429D01*
X152127857Y-99912714D01*
X152055286Y-99912714D01*
X151946429Y-99876429D01*
X151873857Y-99803857D01*
X151837572Y-99731286D01*
X151801286Y-99586143D01*
X151801286Y-99477286D01*
X151837572Y-99332143D01*
X151873857Y-99259571D01*
X151946429Y-99187000D01*
X152055286Y-99150714D01*
X152127857Y-99150714D01*
X152236714Y-99187000D01*
X152273000Y-99223286D01*
X152998714Y-99912714D02*
X152563286Y-99912714D01*
X152781000Y-99912714D02*
X152781000Y-99150714D01*
X152708429Y-99259571D01*
X152635857Y-99332143D01*
X152563286Y-99368429D01*
X151991786Y-96864714D02*
X151628928Y-96864714D01*
X151810357Y-96864714D02*
X151810357Y-96102714D01*
X151749881Y-96211571D01*
X151689405Y-96284143D01*
X151628928Y-96320429D01*
X152384881Y-96102714D02*
X152445357Y-96102714D01*
X152505833Y-96139000D01*
X152536071Y-96175286D01*
X152566309Y-96247857D01*
X152596548Y-96393000D01*
X152596548Y-96574429D01*
X152566309Y-96719571D01*
X152536071Y-96792143D01*
X152505833Y-96828429D01*
X152445357Y-96864714D01*
X152384881Y-96864714D01*
X152324405Y-96828429D01*
X152294167Y-96792143D01*
X152263928Y-96719571D01*
X152233690Y-96574429D01*
X152233690Y-96393000D01*
X152263928Y-96247857D01*
X152294167Y-96175286D01*
X152324405Y-96139000D01*
X152384881Y-96102714D01*
X153140833Y-96356714D02*
X153140833Y-96864714D01*
X152868690Y-96356714D02*
X152868690Y-96755857D01*
X152898929Y-96828429D01*
X152959405Y-96864714D01*
X153050119Y-96864714D01*
X153110595Y-96828429D01*
X153140833Y-96792143D01*
D15*
X153379715Y-99749429D02*
X153960286Y-99749429D01*
X153670000Y-100039714D02*
X153670000Y-99459143D01*
D16*
X171301834Y-106453214D02*
X171259500Y-106507643D01*
X171132500Y-106562071D01*
X171047834Y-106562071D01*
X170920834Y-106507643D01*
X170836167Y-106398786D01*
X170793834Y-106289929D01*
X170751500Y-106072214D01*
X170751500Y-105908929D01*
X170793834Y-105691214D01*
X170836167Y-105582357D01*
X170920834Y-105473500D01*
X171047834Y-105419071D01*
X171132500Y-105419071D01*
X171259500Y-105473500D01*
X171301834Y-105527929D01*
X172063834Y-105800071D02*
X172063834Y-106562071D01*
X171852167Y-105364643D02*
X171640500Y-106181071D01*
X172190834Y-106181071D01*
X170793834Y-109610071D02*
X170793834Y-110372071D01*
X170582167Y-109174643D02*
X170370500Y-109991071D01*
X170920834Y-109991071D01*
X171174834Y-109229071D02*
X171767501Y-109229071D01*
X171386501Y-110372071D01*
X172487168Y-109610071D02*
X172487168Y-110372071D01*
X172106168Y-109610071D02*
X172106168Y-110208786D01*
X172148501Y-110317643D01*
X172233168Y-110372071D01*
X172360168Y-110372071D01*
X172444834Y-110317643D01*
X172487168Y-110263214D01*
D17*
X169109572Y-106126643D02*
X169980429Y-106126643D01*
X169545000Y-106562071D02*
X169545000Y-105691214D01*
D16*
X164316834Y-110263214D02*
X164274500Y-110317643D01*
X164147500Y-110372071D01*
X164062834Y-110372071D01*
X163935834Y-110317643D01*
X163851167Y-110208786D01*
X163808834Y-110099929D01*
X163766500Y-109882214D01*
X163766500Y-109718929D01*
X163808834Y-109501214D01*
X163851167Y-109392357D01*
X163935834Y-109283500D01*
X164062834Y-109229071D01*
X164147500Y-109229071D01*
X164274500Y-109283500D01*
X164316834Y-109337929D01*
X164613167Y-109229071D02*
X165163500Y-109229071D01*
X164867167Y-109664500D01*
X164994167Y-109664500D01*
X165078834Y-109718929D01*
X165121167Y-109773357D01*
X165163500Y-109882214D01*
X165163500Y-110154357D01*
X165121167Y-110263214D01*
X165078834Y-110317643D01*
X164994167Y-110372071D01*
X164740167Y-110372071D01*
X164655500Y-110317643D01*
X164613167Y-110263214D01*
X163808834Y-105800071D02*
X163808834Y-106562071D01*
X163597167Y-105364643D02*
X163385500Y-106181071D01*
X163935834Y-106181071D01*
X164189834Y-105419071D02*
X164782501Y-105419071D01*
X164401501Y-106562071D01*
X165502168Y-105800071D02*
X165502168Y-106562071D01*
X165121168Y-105800071D02*
X165121168Y-106398786D01*
X165163501Y-106507643D01*
X165248168Y-106562071D01*
X165375168Y-106562071D01*
X165459834Y-106507643D01*
X165502168Y-106453214D01*
D17*
X165934572Y-109936643D02*
X166805429Y-109936643D01*
X166370000Y-110372071D02*
X166370000Y-109501214D01*
D16*
X174458334Y-96877143D02*
X174410715Y-96924762D01*
X174267858Y-96972381D01*
X174172620Y-96972381D01*
X174029762Y-96924762D01*
X173934524Y-96829524D01*
X173886905Y-96734286D01*
X173839286Y-96543810D01*
X173839286Y-96400952D01*
X173886905Y-96210476D01*
X173934524Y-96115238D01*
X174029762Y-96020000D01*
X174172620Y-95972381D01*
X174267858Y-95972381D01*
X174410715Y-96020000D01*
X174458334Y-96067619D01*
X175363096Y-95972381D02*
X174886905Y-95972381D01*
X174839286Y-96448571D01*
X174886905Y-96400952D01*
X174982143Y-96353333D01*
X175220239Y-96353333D01*
X175315477Y-96400952D01*
X175363096Y-96448571D01*
X175410715Y-96543810D01*
X175410715Y-96781905D01*
X175363096Y-96877143D01*
X175315477Y-96924762D01*
X175220239Y-96972381D01*
X174982143Y-96972381D01*
X174886905Y-96924762D01*
X174839286Y-96877143D01*
X173410714Y-95972381D02*
X173505953Y-95972381D01*
X173601191Y-96020000D01*
X173648810Y-96067619D01*
X173696429Y-96162857D01*
X173744048Y-96353333D01*
X173744048Y-96591429D01*
X173696429Y-96781905D01*
X173648810Y-96877143D01*
X173601191Y-96924762D01*
X173505953Y-96972381D01*
X173410714Y-96972381D01*
X173315476Y-96924762D01*
X173267857Y-96877143D01*
X173220238Y-96781905D01*
X173172619Y-96591429D01*
X173172619Y-96353333D01*
X173220238Y-96162857D01*
X173267857Y-96067619D01*
X173315476Y-96020000D01*
X173410714Y-95972381D01*
X174220238Y-96924762D02*
X174220238Y-96972381D01*
X174172619Y-97067619D01*
X174125000Y-97115238D01*
X174601190Y-96067619D02*
X174648809Y-96020000D01*
X174744047Y-95972381D01*
X174982143Y-95972381D01*
X175077381Y-96020000D01*
X175125000Y-96067619D01*
X175172619Y-96162857D01*
X175172619Y-96258095D01*
X175125000Y-96400952D01*
X174553571Y-96972381D01*
X175172619Y-96972381D01*
X176029762Y-96305714D02*
X176029762Y-96972381D01*
X175601190Y-96305714D02*
X175601190Y-96829524D01*
X175648809Y-96924762D01*
X175744047Y-96972381D01*
X175886905Y-96972381D01*
X175982143Y-96924762D01*
X176029762Y-96877143D01*
D14*
X155297619Y-108045238D02*
X155250000Y-108140476D01*
X155154762Y-108235714D01*
X155011905Y-108378571D01*
X154964286Y-108473810D01*
X154964286Y-108569048D01*
X155202381Y-108521429D02*
X155154762Y-108616667D01*
X155059524Y-108711905D01*
X154869048Y-108759524D01*
X154535714Y-108759524D01*
X154345238Y-108711905D01*
X154250000Y-108616667D01*
X154202381Y-108521429D01*
X154202381Y-108330952D01*
X154250000Y-108235714D01*
X154345238Y-108140476D01*
X154535714Y-108092857D01*
X154869048Y-108092857D01*
X155059524Y-108140476D01*
X155154762Y-108235714D01*
X155202381Y-108330952D01*
X155202381Y-108521429D01*
X155202381Y-107140476D02*
X155202381Y-107711905D01*
X155202381Y-107426191D02*
X154202381Y-107426191D01*
X154345238Y-107521429D01*
X154440476Y-107616667D01*
X154488095Y-107711905D01*
X180625762Y-107608619D02*
X180530524Y-107561000D01*
X180435286Y-107465762D01*
X180292429Y-107322905D01*
X180197190Y-107275286D01*
X180101952Y-107275286D01*
X180149571Y-107513381D02*
X180054333Y-107465762D01*
X179959095Y-107370524D01*
X179911476Y-107180048D01*
X179911476Y-106846714D01*
X179959095Y-106656238D01*
X180054333Y-106561000D01*
X180149571Y-106513381D01*
X180340048Y-106513381D01*
X180435286Y-106561000D01*
X180530524Y-106656238D01*
X180578143Y-106846714D01*
X180578143Y-107180048D01*
X180530524Y-107370524D01*
X180435286Y-107465762D01*
X180340048Y-107513381D01*
X180149571Y-107513381D01*
X180959095Y-106608619D02*
X181006714Y-106561000D01*
X181101952Y-106513381D01*
X181340048Y-106513381D01*
X181435286Y-106561000D01*
X181482905Y-106608619D01*
X181530524Y-106703857D01*
X181530524Y-106799095D01*
X181482905Y-106941952D01*
X180911476Y-107513381D01*
X181530524Y-107513381D01*
X181133762Y-104306619D02*
X181038524Y-104259000D01*
X180943286Y-104163762D01*
X180800429Y-104020905D01*
X180705190Y-103973286D01*
X180609952Y-103973286D01*
X180657571Y-104211381D02*
X180562333Y-104163762D01*
X180467095Y-104068524D01*
X180419476Y-103878048D01*
X180419476Y-103544714D01*
X180467095Y-103354238D01*
X180562333Y-103259000D01*
X180657571Y-103211381D01*
X180848048Y-103211381D01*
X180943286Y-103259000D01*
X181038524Y-103354238D01*
X181086143Y-103544714D01*
X181086143Y-103878048D01*
X181038524Y-104068524D01*
X180943286Y-104163762D01*
X180848048Y-104211381D01*
X180657571Y-104211381D01*
X181419476Y-103211381D02*
X182038524Y-103211381D01*
X181705190Y-103592333D01*
X181848048Y-103592333D01*
X181943286Y-103639952D01*
X181990905Y-103687571D01*
X182038524Y-103782810D01*
X182038524Y-104020905D01*
X181990905Y-104116143D01*
X181943286Y-104163762D01*
X181848048Y-104211381D01*
X181562333Y-104211381D01*
X181467095Y-104163762D01*
X181419476Y-104116143D01*
D16*
X154773334Y-93797381D02*
X154440000Y-93321190D01*
X154201905Y-93797381D02*
X154201905Y-92797381D01*
X154582858Y-92797381D01*
X154678096Y-92845000D01*
X154725715Y-92892619D01*
X154773334Y-92987857D01*
X154773334Y-93130714D01*
X154725715Y-93225952D01*
X154678096Y-93273571D01*
X154582858Y-93321190D01*
X154201905Y-93321190D01*
X155725715Y-93797381D02*
X155154286Y-93797381D01*
X155440000Y-93797381D02*
X155440000Y-92797381D01*
X155344762Y-92940238D01*
X155249524Y-93035476D01*
X155154286Y-93083095D01*
X153630476Y-92797381D02*
X154249524Y-92797381D01*
X153916190Y-93178333D01*
X154059048Y-93178333D01*
X154154286Y-93225952D01*
X154201905Y-93273571D01*
X154249524Y-93368810D01*
X154249524Y-93606905D01*
X154201905Y-93702143D01*
X154154286Y-93749762D01*
X154059048Y-93797381D01*
X153773333Y-93797381D01*
X153678095Y-93749762D01*
X153630476Y-93702143D01*
X154582857Y-92797381D02*
X155201905Y-92797381D01*
X154868571Y-93178333D01*
X155011429Y-93178333D01*
X155106667Y-93225952D01*
X155154286Y-93273571D01*
X155201905Y-93368810D01*
X155201905Y-93606905D01*
X155154286Y-93702143D01*
X155106667Y-93749762D01*
X155011429Y-93797381D01*
X154725714Y-93797381D01*
X154630476Y-93749762D01*
X154582857Y-93702143D01*
X155630476Y-93797381D02*
X155630476Y-92797381D01*
X156201905Y-93797381D02*
X155773333Y-93225952D01*
X156201905Y-92797381D02*
X155630476Y-93368810D01*
X162393334Y-96972381D02*
X162060000Y-96496190D01*
X161821905Y-96972381D02*
X161821905Y-95972381D01*
X162202858Y-95972381D01*
X162298096Y-96020000D01*
X162345715Y-96067619D01*
X162393334Y-96162857D01*
X162393334Y-96305714D01*
X162345715Y-96400952D01*
X162298096Y-96448571D01*
X162202858Y-96496190D01*
X161821905Y-96496190D01*
X162774286Y-96067619D02*
X162821905Y-96020000D01*
X162917143Y-95972381D01*
X163155239Y-95972381D01*
X163250477Y-96020000D01*
X163298096Y-96067619D01*
X163345715Y-96162857D01*
X163345715Y-96258095D01*
X163298096Y-96400952D01*
X162726667Y-96972381D01*
X163345715Y-96972381D01*
X161298095Y-96067619D02*
X161345714Y-96020000D01*
X161440952Y-95972381D01*
X161679048Y-95972381D01*
X161774286Y-96020000D01*
X161821905Y-96067619D01*
X161869524Y-96162857D01*
X161869524Y-96258095D01*
X161821905Y-96400952D01*
X161250476Y-96972381D01*
X161869524Y-96972381D01*
X162250476Y-96067619D02*
X162298095Y-96020000D01*
X162393333Y-95972381D01*
X162631429Y-95972381D01*
X162726667Y-96020000D01*
X162774286Y-96067619D01*
X162821905Y-96162857D01*
X162821905Y-96258095D01*
X162774286Y-96400952D01*
X162202857Y-96972381D01*
X162821905Y-96972381D01*
X163250476Y-96972381D02*
X163250476Y-95972381D01*
X163821905Y-96972381D02*
X163393333Y-96400952D01*
X163821905Y-95972381D02*
X163250476Y-96543810D01*
X162393334Y-100147381D02*
X162060000Y-99671190D01*
X161821905Y-100147381D02*
X161821905Y-99147381D01*
X162202858Y-99147381D01*
X162298096Y-99195000D01*
X162345715Y-99242619D01*
X162393334Y-99337857D01*
X162393334Y-99480714D01*
X162345715Y-99575952D01*
X162298096Y-99623571D01*
X162202858Y-99671190D01*
X161821905Y-99671190D01*
X162726667Y-99147381D02*
X163345715Y-99147381D01*
X163012381Y-99528333D01*
X163155239Y-99528333D01*
X163250477Y-99575952D01*
X163298096Y-99623571D01*
X163345715Y-99718810D01*
X163345715Y-99956905D01*
X163298096Y-100052143D01*
X163250477Y-100099762D01*
X163155239Y-100147381D01*
X162869524Y-100147381D01*
X162774286Y-100099762D01*
X162726667Y-100052143D01*
X161393334Y-100147381D02*
X160821905Y-100147381D01*
X161107619Y-100147381D02*
X161107619Y-99147381D01*
X161012381Y-99290238D01*
X160917143Y-99385476D01*
X160821905Y-99433095D01*
X162012381Y-99147381D02*
X162107620Y-99147381D01*
X162202858Y-99195000D01*
X162250477Y-99242619D01*
X162298096Y-99337857D01*
X162345715Y-99528333D01*
X162345715Y-99766429D01*
X162298096Y-99956905D01*
X162250477Y-100052143D01*
X162202858Y-100099762D01*
X162107620Y-100147381D01*
X162012381Y-100147381D01*
X161917143Y-100099762D01*
X161869524Y-100052143D01*
X161821905Y-99956905D01*
X161774286Y-99766429D01*
X161774286Y-99528333D01*
X161821905Y-99337857D01*
X161869524Y-99242619D01*
X161917143Y-99195000D01*
X162012381Y-99147381D01*
X162964762Y-99147381D02*
X163060001Y-99147381D01*
X163155239Y-99195000D01*
X163202858Y-99242619D01*
X163250477Y-99337857D01*
X163298096Y-99528333D01*
X163298096Y-99766429D01*
X163250477Y-99956905D01*
X163202858Y-100052143D01*
X163155239Y-100099762D01*
X163060001Y-100147381D01*
X162964762Y-100147381D01*
X162869524Y-100099762D01*
X162821905Y-100052143D01*
X162774286Y-99956905D01*
X162726667Y-99766429D01*
X162726667Y-99528333D01*
X162774286Y-99337857D01*
X162821905Y-99242619D01*
X162869524Y-99195000D01*
X162964762Y-99147381D01*
X163726667Y-100147381D02*
X163726667Y-99147381D01*
X164298096Y-100147381D02*
X163869524Y-99575952D01*
X164298096Y-99147381D02*
X163726667Y-99718810D01*
X165568334Y-103322381D02*
X165235000Y-102846190D01*
X164996905Y-103322381D02*
X164996905Y-102322381D01*
X165377858Y-102322381D01*
X165473096Y-102370000D01*
X165520715Y-102417619D01*
X165568334Y-102512857D01*
X165568334Y-102655714D01*
X165520715Y-102750952D01*
X165473096Y-102798571D01*
X165377858Y-102846190D01*
X164996905Y-102846190D01*
X166425477Y-102655714D02*
X166425477Y-103322381D01*
X166187381Y-102274762D02*
X165949286Y-102989048D01*
X166568334Y-102989048D01*
X164711191Y-102655714D02*
X164711191Y-103322381D01*
X164473095Y-102274762D02*
X164235000Y-102989048D01*
X164854048Y-102989048D01*
X165235000Y-103227143D02*
X165282619Y-103274762D01*
X165235000Y-103322381D01*
X165187381Y-103274762D01*
X165235000Y-103227143D01*
X165235000Y-103322381D01*
X165615952Y-102322381D02*
X166282619Y-102322381D01*
X165854047Y-103322381D01*
X166663571Y-103322381D02*
X166663571Y-102322381D01*
X167235000Y-103322381D02*
X166806428Y-102750952D01*
X167235000Y-102322381D02*
X166663571Y-102893810D01*
X164298334Y-93797381D02*
X163965000Y-93321190D01*
X163726905Y-93797381D02*
X163726905Y-92797381D01*
X164107858Y-92797381D01*
X164203096Y-92845000D01*
X164250715Y-92892619D01*
X164298334Y-92987857D01*
X164298334Y-93130714D01*
X164250715Y-93225952D01*
X164203096Y-93273571D01*
X164107858Y-93321190D01*
X163726905Y-93321190D01*
X165155477Y-92797381D02*
X164965000Y-92797381D01*
X164869762Y-92845000D01*
X164822143Y-92892619D01*
X164726905Y-93035476D01*
X164679286Y-93225952D01*
X164679286Y-93606905D01*
X164726905Y-93702143D01*
X164774524Y-93749762D01*
X164869762Y-93797381D01*
X165060239Y-93797381D01*
X165155477Y-93749762D01*
X165203096Y-93702143D01*
X165250715Y-93606905D01*
X165250715Y-93368810D01*
X165203096Y-93273571D01*
X165155477Y-93225952D01*
X165060239Y-93178333D01*
X164869762Y-93178333D01*
X164774524Y-93225952D01*
X164726905Y-93273571D01*
X164679286Y-93368810D01*
X163179286Y-92797381D02*
X163798334Y-92797381D01*
X163465000Y-93178333D01*
X163607858Y-93178333D01*
X163703096Y-93225952D01*
X163750715Y-93273571D01*
X163798334Y-93368810D01*
X163798334Y-93606905D01*
X163750715Y-93702143D01*
X163703096Y-93749762D01*
X163607858Y-93797381D01*
X163322143Y-93797381D01*
X163226905Y-93749762D01*
X163179286Y-93702143D01*
X164131667Y-92797381D02*
X164750715Y-92797381D01*
X164417381Y-93178333D01*
X164560239Y-93178333D01*
X164655477Y-93225952D01*
X164703096Y-93273571D01*
X164750715Y-93368810D01*
X164750715Y-93606905D01*
X164703096Y-93702143D01*
X164655477Y-93749762D01*
X164560239Y-93797381D01*
X164274524Y-93797381D01*
X164179286Y-93749762D01*
X164131667Y-93702143D01*
X165369762Y-92797381D02*
X165465001Y-92797381D01*
X165560239Y-92845000D01*
X165607858Y-92892619D01*
X165655477Y-92987857D01*
X165703096Y-93178333D01*
X165703096Y-93416429D01*
X165655477Y-93606905D01*
X165607858Y-93702143D01*
X165560239Y-93749762D01*
X165465001Y-93797381D01*
X165369762Y-93797381D01*
X165274524Y-93749762D01*
X165226905Y-93702143D01*
X165179286Y-93606905D01*
X165131667Y-93416429D01*
X165131667Y-93178333D01*
X165179286Y-92987857D01*
X165226905Y-92892619D01*
X165274524Y-92845000D01*
X165369762Y-92797381D01*
D14*
X179601905Y-91257381D02*
X179601905Y-90257381D01*
X179982858Y-90257381D01*
X180078096Y-90305000D01*
X180125715Y-90352619D01*
X180173334Y-90447857D01*
X180173334Y-90590714D01*
X180125715Y-90685952D01*
X180078096Y-90733571D01*
X179982858Y-90781190D01*
X179601905Y-90781190D01*
X180554286Y-90352619D02*
X180601905Y-90305000D01*
X180697143Y-90257381D01*
X180935239Y-90257381D01*
X181030477Y-90305000D01*
X181078096Y-90352619D01*
X181125715Y-90447857D01*
X181125715Y-90543095D01*
X181078096Y-90685952D01*
X180506667Y-91257381D01*
X181125715Y-91257381D01*
D16*
X154773334Y-110942381D02*
X154440000Y-110466190D01*
X154201905Y-110942381D02*
X154201905Y-109942381D01*
X154582858Y-109942381D01*
X154678096Y-109990000D01*
X154725715Y-110037619D01*
X154773334Y-110132857D01*
X154773334Y-110275714D01*
X154725715Y-110370952D01*
X154678096Y-110418571D01*
X154582858Y-110466190D01*
X154201905Y-110466190D01*
X155678096Y-109942381D02*
X155201905Y-109942381D01*
X155154286Y-110418571D01*
X155201905Y-110370952D01*
X155297143Y-110323333D01*
X155535239Y-110323333D01*
X155630477Y-110370952D01*
X155678096Y-110418571D01*
X155725715Y-110513810D01*
X155725715Y-110751905D01*
X155678096Y-110847143D01*
X155630477Y-110894762D01*
X155535239Y-110942381D01*
X155297143Y-110942381D01*
X155201905Y-110894762D01*
X155154286Y-110847143D01*
X153916191Y-110275714D02*
X153916191Y-110942381D01*
X153678095Y-109894762D02*
X153440000Y-110609048D01*
X154059048Y-110609048D01*
X154440000Y-110847143D02*
X154487619Y-110894762D01*
X154440000Y-110942381D01*
X154392381Y-110894762D01*
X154440000Y-110847143D01*
X154440000Y-110942381D01*
X154820952Y-109942381D02*
X155487619Y-109942381D01*
X155059047Y-110942381D01*
X155868571Y-110942381D02*
X155868571Y-109942381D01*
X156440000Y-110942381D02*
X156011428Y-110370952D01*
X156440000Y-109942381D02*
X155868571Y-110513810D01*
D14*
X173251905Y-93797381D02*
X173251905Y-92797381D01*
X173490000Y-92797381D01*
X173632858Y-92845000D01*
X173728096Y-92940238D01*
X173775715Y-93035476D01*
X173823334Y-93225952D01*
X173823334Y-93368810D01*
X173775715Y-93559286D01*
X173728096Y-93654524D01*
X173632858Y-93749762D01*
X173490000Y-93797381D01*
X173251905Y-93797381D01*
X174775715Y-93797381D02*
X174204286Y-93797381D01*
X174490000Y-93797381D02*
X174490000Y-92797381D01*
X174394762Y-92940238D01*
X174299524Y-93035476D01*
X174204286Y-93083095D01*
D16*
X173841834Y-100103214D02*
X173799500Y-100157643D01*
X173672500Y-100212071D01*
X173587834Y-100212071D01*
X173460834Y-100157643D01*
X173376167Y-100048786D01*
X173333834Y-99939929D01*
X173291500Y-99722214D01*
X173291500Y-99558929D01*
X173333834Y-99341214D01*
X173376167Y-99232357D01*
X173460834Y-99123500D01*
X173587834Y-99069071D01*
X173672500Y-99069071D01*
X173799500Y-99123500D01*
X173841834Y-99177929D01*
X174180500Y-99177929D02*
X174222834Y-99123500D01*
X174307500Y-99069071D01*
X174519167Y-99069071D01*
X174603834Y-99123500D01*
X174646167Y-99177929D01*
X174688500Y-99286786D01*
X174688500Y-99395643D01*
X174646167Y-99558929D01*
X174138167Y-100212071D01*
X174688500Y-100212071D01*
X173333834Y-103260071D02*
X173333834Y-104022071D01*
X173122167Y-102824643D02*
X172910500Y-103641071D01*
X173460834Y-103641071D01*
X173714834Y-102879071D02*
X174307501Y-102879071D01*
X173926501Y-104022071D01*
X175027168Y-103260071D02*
X175027168Y-104022071D01*
X174646168Y-103260071D02*
X174646168Y-103858786D01*
X174688501Y-103967643D01*
X174773168Y-104022071D01*
X174900168Y-104022071D01*
X174984834Y-103967643D01*
X175027168Y-103913214D01*
D17*
X171649572Y-99776643D02*
X172520429Y-99776643D01*
X172085000Y-100212071D02*
X172085000Y-99341214D01*
D18*
X150319619Y-106159904D02*
X149303619Y-106159904D01*
X149303619Y-105772857D01*
X149352000Y-105676095D01*
X149400381Y-105627714D01*
X149497143Y-105579333D01*
X149642286Y-105579333D01*
X149739048Y-105627714D01*
X149787429Y-105676095D01*
X149835810Y-105772857D01*
X149835810Y-106159904D01*
X150319619Y-104611714D02*
X150319619Y-105192285D01*
X150319619Y-104901999D02*
X149303619Y-104901999D01*
X149448762Y-104998761D01*
X149545524Y-105095523D01*
X149593905Y-105192285D01*
X150319619Y-105869619D02*
X149303619Y-105869619D01*
X149642286Y-105385809D02*
X150319619Y-105385809D01*
X149739048Y-105385809D02*
X149690667Y-105337428D01*
X149642286Y-105240666D01*
X149642286Y-105095524D01*
X149690667Y-104998762D01*
X149787429Y-104950381D01*
X150319619Y-104950381D01*
X182069619Y-96489762D02*
X181585810Y-96828428D01*
X182069619Y-97070333D02*
X181053619Y-97070333D01*
X181053619Y-96683286D01*
X181102000Y-96586524D01*
X181150381Y-96538143D01*
X181247143Y-96489762D01*
X181392286Y-96489762D01*
X181489048Y-96538143D01*
X181537429Y-96586524D01*
X181585810Y-96683286D01*
X181585810Y-97070333D01*
X181053619Y-96199476D02*
X182069619Y-95860809D01*
X181053619Y-95522143D01*
X181150381Y-95231857D02*
X181102000Y-95183476D01*
X181053619Y-95086714D01*
X181053619Y-94844810D01*
X181102000Y-94748048D01*
X181150381Y-94699667D01*
X181247143Y-94651286D01*
X181343905Y-94651286D01*
X181489048Y-94699667D01*
X182069619Y-95280238D01*
X182069619Y-94651286D01*
X160685238Y-117299619D02*
X160346572Y-116815810D01*
X160104667Y-117299619D02*
X160104667Y-116283619D01*
X160491714Y-116283619D01*
X160588476Y-116332000D01*
X160636857Y-116380381D01*
X160685238Y-116477143D01*
X160685238Y-116622286D01*
X160636857Y-116719048D01*
X160588476Y-116767429D01*
X160491714Y-116815810D01*
X160104667Y-116815810D01*
X160975524Y-116283619D02*
X161314191Y-117299619D01*
X161652857Y-116283619D01*
X162523714Y-117299619D02*
X161943143Y-117299619D01*
X162233429Y-117299619D02*
X162233429Y-116283619D01*
X162136667Y-116428762D01*
X162039905Y-116525524D01*
X161943143Y-116573905D01*
D16*
X176887143Y-108116666D02*
X176934762Y-108164285D01*
X176982381Y-108307142D01*
X176982381Y-108402380D01*
X176934762Y-108545238D01*
X176839524Y-108640476D01*
X176744286Y-108688095D01*
X176553810Y-108735714D01*
X176410952Y-108735714D01*
X176220476Y-108688095D01*
X176125238Y-108640476D01*
X176030000Y-108545238D01*
X175982381Y-108402380D01*
X175982381Y-108307142D01*
X176030000Y-108164285D01*
X176077619Y-108116666D01*
X175982381Y-107259523D02*
X175982381Y-107450000D01*
X176030000Y-107545238D01*
X176077619Y-107592857D01*
X176220476Y-107688095D01*
X176410952Y-107735714D01*
X176791905Y-107735714D01*
X176887143Y-107688095D01*
X176934762Y-107640476D01*
X176982381Y-107545238D01*
X176982381Y-107354761D01*
X176934762Y-107259523D01*
X176887143Y-107211904D01*
X176791905Y-107164285D01*
X176553810Y-107164285D01*
X176458571Y-107211904D01*
X176410952Y-107259523D01*
X176363333Y-107354761D01*
X176363333Y-107545238D01*
X176410952Y-107640476D01*
X176458571Y-107688095D01*
X176553810Y-107735714D01*
X175982381Y-109164286D02*
X175982381Y-109069047D01*
X176030000Y-108973809D01*
X176077619Y-108926190D01*
X176172857Y-108878571D01*
X176363333Y-108830952D01*
X176601429Y-108830952D01*
X176791905Y-108878571D01*
X176887143Y-108926190D01*
X176934762Y-108973809D01*
X176982381Y-109069047D01*
X176982381Y-109164286D01*
X176934762Y-109259524D01*
X176887143Y-109307143D01*
X176791905Y-109354762D01*
X176601429Y-109402381D01*
X176363333Y-109402381D01*
X176172857Y-109354762D01*
X176077619Y-109307143D01*
X176030000Y-109259524D01*
X175982381Y-109164286D01*
X176934762Y-108354762D02*
X176982381Y-108354762D01*
X177077619Y-108402381D01*
X177125238Y-108450000D01*
X176077619Y-107973810D02*
X176030000Y-107926191D01*
X175982381Y-107830953D01*
X175982381Y-107592857D01*
X176030000Y-107497619D01*
X176077619Y-107450000D01*
X176172857Y-107402381D01*
X176268095Y-107402381D01*
X176410952Y-107450000D01*
X176982381Y-108021429D01*
X176982381Y-107402381D01*
X176315714Y-106545238D02*
X176982381Y-106545238D01*
X176315714Y-106973810D02*
X176839524Y-106973810D01*
X176934762Y-106926191D01*
X176982381Y-106830953D01*
X176982381Y-106688095D01*
X176934762Y-106592857D01*
X176887143Y-106545238D01*
D18*
X183400096Y-117299619D02*
X183400096Y-116283619D01*
X183787143Y-116283619D01*
X183883905Y-116332000D01*
X183932286Y-116380381D01*
X183980667Y-116477143D01*
X183980667Y-116622286D01*
X183932286Y-116719048D01*
X183883905Y-116767429D01*
X183787143Y-116815810D01*
X183400096Y-116815810D01*
X184319334Y-116283619D02*
X184948286Y-116283619D01*
X184609620Y-116670667D01*
X184754762Y-116670667D01*
X184851524Y-116719048D01*
X184899905Y-116767429D01*
X184948286Y-116864190D01*
X184948286Y-117106095D01*
X184899905Y-117202857D01*
X184851524Y-117251238D01*
X184754762Y-117299619D01*
X184464477Y-117299619D01*
X184367715Y-117251238D01*
X184319334Y-117202857D01*
X183303334Y-116283619D02*
X183496857Y-116283619D01*
X183593619Y-116332000D01*
X183690381Y-116428762D01*
X183738762Y-116622286D01*
X183738762Y-116960952D01*
X183690381Y-117154476D01*
X183593619Y-117251238D01*
X183496857Y-117299619D01*
X183303334Y-117299619D01*
X183206572Y-117251238D01*
X183109810Y-117154476D01*
X183061429Y-116960952D01*
X183061429Y-116622286D01*
X183109810Y-116428762D01*
X183206572Y-116332000D01*
X183303334Y-116283619D01*
X184609619Y-116622286D02*
X184609619Y-117299619D01*
X184174191Y-116622286D02*
X184174191Y-117154476D01*
X184222572Y-117251238D01*
X184319334Y-117299619D01*
X184464476Y-117299619D01*
X184561238Y-117251238D01*
X184609619Y-117202857D01*
X184948286Y-116622286D02*
X185335334Y-116622286D01*
X185093429Y-116283619D02*
X185093429Y-117154476D01*
X185141810Y-117251238D01*
X185238572Y-117299619D01*
X185335334Y-117299619D01*
X169575238Y-117299619D02*
X169236572Y-116815810D01*
X168994667Y-117299619D02*
X168994667Y-116283619D01*
X169381714Y-116283619D01*
X169478476Y-116332000D01*
X169526857Y-116380381D01*
X169575238Y-116477143D01*
X169575238Y-116622286D01*
X169526857Y-116719048D01*
X169478476Y-116767429D01*
X169381714Y-116815810D01*
X168994667Y-116815810D01*
X169865524Y-116283619D02*
X170204191Y-117299619D01*
X170542857Y-116283619D01*
X170784762Y-116283619D02*
X171413714Y-116283619D01*
X171075048Y-116670667D01*
X171220190Y-116670667D01*
X171316952Y-116719048D01*
X171365333Y-116767429D01*
X171413714Y-116864190D01*
X171413714Y-117106095D01*
X171365333Y-117202857D01*
X171316952Y-117251238D01*
X171220190Y-117299619D01*
X170929905Y-117299619D01*
X170833143Y-117251238D01*
X170784762Y-117202857D01*
X176445334Y-112171238D02*
X176590477Y-112219619D01*
X176832381Y-112219619D01*
X176929143Y-112171238D01*
X176977524Y-112122857D01*
X177025905Y-112026095D01*
X177025905Y-111929333D01*
X176977524Y-111832571D01*
X176929143Y-111784190D01*
X176832381Y-111735810D01*
X176638858Y-111687429D01*
X176542096Y-111639048D01*
X176493715Y-111590667D01*
X176445334Y-111493905D01*
X176445334Y-111397143D01*
X176493715Y-111300381D01*
X176542096Y-111252000D01*
X176638858Y-111203619D01*
X176880762Y-111203619D01*
X177025905Y-111252000D01*
X177364572Y-111203619D02*
X177606477Y-112219619D01*
X177800000Y-111493905D01*
X177993524Y-112219619D01*
X178235429Y-111203619D01*
X178574096Y-111300381D02*
X178622477Y-111252000D01*
X178719239Y-111203619D01*
X178961143Y-111203619D01*
X179057905Y-111252000D01*
X179106286Y-111300381D01*
X179154667Y-111397143D01*
X179154667Y-111493905D01*
X179106286Y-111639048D01*
X178525715Y-112219619D01*
X179154667Y-112219619D01*
X178344286Y-112171238D02*
X178247524Y-112219619D01*
X178054001Y-112219619D01*
X177957239Y-112171238D01*
X177908858Y-112122857D01*
X177860477Y-112026095D01*
X177860477Y-111735810D01*
X177908858Y-111639048D01*
X177957239Y-111590667D01*
X178054001Y-111542286D01*
X178247524Y-111542286D01*
X178344286Y-111590667D01*
X178924858Y-112219619D02*
X178828096Y-112171238D01*
X178779715Y-112074476D01*
X178779715Y-111203619D01*
X179311905Y-112219619D02*
X179311905Y-111542286D01*
X179311905Y-111203619D02*
X179263524Y-111252000D01*
X179311905Y-111300381D01*
X179360286Y-111252000D01*
X179311905Y-111203619D01*
X179311905Y-111300381D01*
X179795715Y-111542286D02*
X179795715Y-112558286D01*
X179795715Y-111590667D02*
X179892477Y-111542286D01*
X180086000Y-111542286D01*
X180182762Y-111590667D01*
X180231143Y-111639048D01*
X180279524Y-111735810D01*
X180279524Y-112026095D01*
X180231143Y-112122857D01*
X180182762Y-112171238D01*
X180086000Y-112219619D01*
X179892477Y-112219619D01*
X179795715Y-112171238D01*
M02*
