M48
;DRILL file {KiCad 4.0.4+e1-6308~48~ubuntu16.04.1-stable} date Fri Oct 14 21:40:47 2016
;FORMAT={-:-/ absolute / inch / decimal}
FMAT,2
INCH,TZ
T1C0.031
T2C0.032
T3C0.032
T4C0.039
%
G90
G05
M72
T1
X6.25Y-4.05
X6.25Y-4.15
X6.25Y-4.25
X7.075Y-4.025
X7.075Y-4.275
X7.125Y-4.075
X7.125Y-4.225
X7.175Y-4.025
X7.175Y-4.275
T2
X7.1Y-3.675
T3
X5.95Y-3.675
X5.95Y-3.85
X5.95Y-4.35
X6.05Y-3.85
X6.25Y-3.675
X6.25Y-3.8
X6.25Y-3.925
X6.25Y-4.35
X6.325Y-3.675
X6.375Y-4.05
X6.425Y-4.25
X6.525Y-4.25
X6.55Y-3.8
X6.55Y-3.925
X6.625Y-3.675
X6.675Y-4.05
X6.7Y-3.675
X6.7Y-4.25
X6.775Y-3.8
X6.8Y-4.
X6.8Y-4.25
X6.9Y-4.
X6.95Y-4.15
X6.95Y-4.35
X6.975Y-3.8
X7.Y-3.675
T4
X6.Y-4.1
X6.Y-4.2
X6.25Y-4.5
X6.35Y-4.5
X6.45Y-4.5
X6.6Y-4.5
X6.7Y-4.5
X6.8Y-4.5
X6.95Y-4.5
X7.05Y-4.5
X7.2Y-4.5
X7.25Y-3.675
X7.25Y-3.775
X7.25Y-3.875
X7.3Y-4.5
T0
M30
