G04 #@! TF.FileFunction,Copper,L1,Top,Signal*
%FSLAX46Y46*%
G04 Gerber Fmt 4.6, Leading zero omitted, Abs format (unit mm)*
G04 Created by KiCad (PCBNEW 4.0.4+e1-6308~48~ubuntu16.04.1-stable) date Sun Oct  9 20:08:59 2016*
%MOMM*%
%LPD*%
G01*
G04 APERTURE LIST*
%ADD10C,0.100000*%
%ADD11R,1.778000X1.778000*%
%ADD12C,1.778000*%
%ADD13C,1.524000*%
%ADD14C,1.200000*%
%ADD15C,1.998980*%
%ADD16R,1.397000X1.397000*%
%ADD17C,1.397000*%
%ADD18R,2.000000X2.000000*%
%ADD19C,2.000000*%
%ADD20C,0.500000*%
%ADD21C,0.254000*%
G04 APERTURE END LIST*
D10*
D11*
X153670000Y-97790000D03*
D12*
X151130000Y-97790000D03*
D11*
X170180000Y-107950000D03*
D12*
X172720000Y-107950000D03*
D11*
X165735000Y-107950000D03*
D12*
X163195000Y-107950000D03*
X172085000Y-96520000D03*
X177165000Y-96520000D03*
D13*
X158750000Y-105410000D03*
X158750000Y-102870000D03*
X158750000Y-107950000D03*
D14*
X179705000Y-102235000D03*
X180975000Y-103505000D03*
X182245000Y-102235000D03*
X182245000Y-108585000D03*
X180975000Y-107315000D03*
X179705000Y-108585000D03*
D12*
X158750000Y-93345000D03*
X151130000Y-93345000D03*
X158750000Y-96520000D03*
X166370000Y-96520000D03*
X158750000Y-99695000D03*
X166370000Y-99695000D03*
X169545000Y-102870000D03*
X161925000Y-102870000D03*
X168275000Y-93345000D03*
X160655000Y-93345000D03*
D15*
X180340000Y-93345000D03*
D12*
X158750000Y-110490000D03*
X151130000Y-110490000D03*
D16*
X170180000Y-93345000D03*
D17*
X177800000Y-93345000D03*
D11*
X172720000Y-101600000D03*
D12*
X175260000Y-101600000D03*
D18*
X152400000Y-106680000D03*
D19*
X152400000Y-104140000D03*
D18*
X184150000Y-98425000D03*
D19*
X184150000Y-95885000D03*
X184150000Y-93345000D03*
D18*
X163830000Y-114300000D03*
D19*
X161290000Y-114300000D03*
X158750000Y-114300000D03*
D12*
X176530000Y-110490000D03*
X176530000Y-105410000D03*
D18*
X185420000Y-114300000D03*
D19*
X182880000Y-114300000D03*
D18*
X172720000Y-114300000D03*
D19*
X170180000Y-114300000D03*
X167640000Y-114300000D03*
D18*
X176530000Y-114300000D03*
D19*
X179070000Y-114300000D03*
D20*
X172720000Y-114300000D02*
X176530000Y-114300000D01*
X163830000Y-114300000D02*
X163830000Y-113665000D01*
X163830000Y-113665000D02*
X165735000Y-111760000D01*
X165735000Y-111760000D02*
X170180000Y-111760000D01*
X170180000Y-111760000D02*
X172720000Y-114300000D01*
D21*
G36*
X187250000Y-116765000D02*
X149300000Y-116765000D01*
X149300000Y-114623795D01*
X157114716Y-114623795D01*
X157363106Y-115224943D01*
X157822637Y-115685278D01*
X158423352Y-115934716D01*
X159073795Y-115935284D01*
X159674943Y-115686894D01*
X160020199Y-115342241D01*
X160362637Y-115685278D01*
X160963352Y-115934716D01*
X161613795Y-115935284D01*
X162214943Y-115686894D01*
X162281574Y-115620379D01*
X162365910Y-115751441D01*
X162578110Y-115896431D01*
X162830000Y-115947440D01*
X164830000Y-115947440D01*
X165065317Y-115903162D01*
X165281441Y-115764090D01*
X165426431Y-115551890D01*
X165477440Y-115300000D01*
X165477440Y-113300000D01*
X165472553Y-113274027D01*
X166101579Y-112645000D01*
X169813420Y-112645000D01*
X169839881Y-112671461D01*
X169255057Y-112913106D01*
X168909801Y-113257759D01*
X168567363Y-112914722D01*
X167966648Y-112665284D01*
X167316205Y-112664716D01*
X166715057Y-112913106D01*
X166254722Y-113372637D01*
X166005284Y-113973352D01*
X166004716Y-114623795D01*
X166253106Y-115224943D01*
X166712637Y-115685278D01*
X167313352Y-115934716D01*
X167963795Y-115935284D01*
X168564943Y-115686894D01*
X168910199Y-115342241D01*
X169252637Y-115685278D01*
X169853352Y-115934716D01*
X170503795Y-115935284D01*
X171104943Y-115686894D01*
X171171574Y-115620379D01*
X171255910Y-115751441D01*
X171468110Y-115896431D01*
X171720000Y-115947440D01*
X173720000Y-115947440D01*
X173955317Y-115903162D01*
X174171441Y-115764090D01*
X174316431Y-115551890D01*
X174367440Y-115300000D01*
X174367440Y-115185000D01*
X174882560Y-115185000D01*
X174882560Y-115300000D01*
X174926838Y-115535317D01*
X175065910Y-115751441D01*
X175278110Y-115896431D01*
X175530000Y-115947440D01*
X177530000Y-115947440D01*
X177765317Y-115903162D01*
X177981441Y-115764090D01*
X178078910Y-115621439D01*
X178142637Y-115685278D01*
X178743352Y-115934716D01*
X179393795Y-115935284D01*
X179994943Y-115686894D01*
X180455278Y-115227363D01*
X180704716Y-114626648D01*
X180704718Y-114623795D01*
X181244716Y-114623795D01*
X181493106Y-115224943D01*
X181952637Y-115685278D01*
X182553352Y-115934716D01*
X183203795Y-115935284D01*
X183804943Y-115686894D01*
X183871574Y-115620379D01*
X183955910Y-115751441D01*
X184168110Y-115896431D01*
X184420000Y-115947440D01*
X186420000Y-115947440D01*
X186655317Y-115903162D01*
X186871441Y-115764090D01*
X187016431Y-115551890D01*
X187067440Y-115300000D01*
X187067440Y-113300000D01*
X187023162Y-113064683D01*
X186884090Y-112848559D01*
X186671890Y-112703569D01*
X186420000Y-112652560D01*
X184420000Y-112652560D01*
X184184683Y-112696838D01*
X183968559Y-112835910D01*
X183871090Y-112978561D01*
X183807363Y-112914722D01*
X183206648Y-112665284D01*
X182556205Y-112664716D01*
X181955057Y-112913106D01*
X181494722Y-113372637D01*
X181245284Y-113973352D01*
X181244716Y-114623795D01*
X180704718Y-114623795D01*
X180705284Y-113976205D01*
X180456894Y-113375057D01*
X179997363Y-112914722D01*
X179396648Y-112665284D01*
X178746205Y-112664716D01*
X178145057Y-112913106D01*
X178078426Y-112979621D01*
X177994090Y-112848559D01*
X177781890Y-112703569D01*
X177530000Y-112652560D01*
X175530000Y-112652560D01*
X175294683Y-112696838D01*
X175078559Y-112835910D01*
X174933569Y-113048110D01*
X174882560Y-113300000D01*
X174882560Y-113415000D01*
X174367440Y-113415000D01*
X174367440Y-113300000D01*
X174323162Y-113064683D01*
X174184090Y-112848559D01*
X173971890Y-112703569D01*
X173720000Y-112652560D01*
X172324139Y-112652560D01*
X170805790Y-111134210D01*
X170518675Y-110942367D01*
X170462484Y-110931190D01*
X170180000Y-110874999D01*
X170179995Y-110875000D01*
X165735005Y-110875000D01*
X165735000Y-110874999D01*
X165452516Y-110931190D01*
X165396325Y-110942367D01*
X165109210Y-111134210D01*
X165109208Y-111134213D01*
X163590860Y-112652560D01*
X162830000Y-112652560D01*
X162594683Y-112696838D01*
X162378559Y-112835910D01*
X162281090Y-112978561D01*
X162217363Y-112914722D01*
X161616648Y-112665284D01*
X160966205Y-112664716D01*
X160365057Y-112913106D01*
X160019801Y-113257759D01*
X159677363Y-112914722D01*
X159076648Y-112665284D01*
X158426205Y-112664716D01*
X157825057Y-112913106D01*
X157364722Y-113372637D01*
X157115284Y-113973352D01*
X157114716Y-114623795D01*
X149300000Y-114623795D01*
X149300000Y-110791812D01*
X149605736Y-110791812D01*
X149837262Y-111352149D01*
X150265596Y-111781231D01*
X150825528Y-112013735D01*
X151431812Y-112014264D01*
X151992149Y-111782738D01*
X152421231Y-111354404D01*
X152653735Y-110794472D01*
X152653737Y-110791812D01*
X157225736Y-110791812D01*
X157457262Y-111352149D01*
X157885596Y-111781231D01*
X158445528Y-112013735D01*
X159051812Y-112014264D01*
X159612149Y-111782738D01*
X160041231Y-111354404D01*
X160273735Y-110794472D01*
X160273737Y-110791812D01*
X175005736Y-110791812D01*
X175237262Y-111352149D01*
X175665596Y-111781231D01*
X176225528Y-112013735D01*
X176831812Y-112014264D01*
X177392149Y-111782738D01*
X177821231Y-111354404D01*
X178053735Y-110794472D01*
X178054264Y-110188188D01*
X177822738Y-109627851D01*
X177394404Y-109198769D01*
X176834472Y-108966265D01*
X176228188Y-108965736D01*
X175667851Y-109197262D01*
X175238769Y-109625596D01*
X175006265Y-110185528D01*
X175005736Y-110791812D01*
X160273737Y-110791812D01*
X160274264Y-110188188D01*
X160042738Y-109627851D01*
X159614404Y-109198769D01*
X159500481Y-109151464D01*
X159540303Y-109135010D01*
X159933629Y-108742370D01*
X160137326Y-108251812D01*
X161670736Y-108251812D01*
X161902262Y-108812149D01*
X162330596Y-109241231D01*
X162890528Y-109473735D01*
X163496812Y-109474264D01*
X164057149Y-109242738D01*
X164240154Y-109060052D01*
X164242838Y-109074317D01*
X164381910Y-109290441D01*
X164594110Y-109435431D01*
X164846000Y-109486440D01*
X166624000Y-109486440D01*
X166859317Y-109442162D01*
X167075441Y-109303090D01*
X167220431Y-109090890D01*
X167271440Y-108839000D01*
X167271440Y-107061000D01*
X168643560Y-107061000D01*
X168643560Y-108839000D01*
X168687838Y-109074317D01*
X168826910Y-109290441D01*
X169039110Y-109435431D01*
X169291000Y-109486440D01*
X171069000Y-109486440D01*
X171304317Y-109442162D01*
X171520441Y-109303090D01*
X171665431Y-109090890D01*
X171672191Y-109057506D01*
X171855596Y-109241231D01*
X172415528Y-109473735D01*
X173021812Y-109474264D01*
X173582149Y-109242738D01*
X173996029Y-108829579D01*
X178469786Y-108829579D01*
X178657408Y-109283657D01*
X179004515Y-109631371D01*
X179458266Y-109819785D01*
X179949579Y-109820214D01*
X180403657Y-109632592D01*
X180751371Y-109285485D01*
X180939785Y-108831734D01*
X180940031Y-108549970D01*
X181010030Y-108550031D01*
X181009786Y-108829579D01*
X181197408Y-109283657D01*
X181544515Y-109631371D01*
X181998266Y-109819785D01*
X182489579Y-109820214D01*
X182943657Y-109632592D01*
X183291371Y-109285485D01*
X183479785Y-108831734D01*
X183480214Y-108340421D01*
X183292592Y-107886343D01*
X182945485Y-107538629D01*
X182491734Y-107350215D01*
X182209970Y-107349969D01*
X182210214Y-107070421D01*
X182022592Y-106616343D01*
X181675485Y-106268629D01*
X181221734Y-106080215D01*
X180730421Y-106079786D01*
X180276343Y-106267408D01*
X179928629Y-106614515D01*
X179740215Y-107068266D01*
X179739969Y-107350030D01*
X179460421Y-107349786D01*
X179006343Y-107537408D01*
X178658629Y-107884515D01*
X178470215Y-108338266D01*
X178469786Y-108829579D01*
X173996029Y-108829579D01*
X174011231Y-108814404D01*
X174243735Y-108254472D01*
X174244264Y-107648188D01*
X174012738Y-107087851D01*
X173584404Y-106658769D01*
X173024472Y-106426265D01*
X172418188Y-106425736D01*
X171857851Y-106657262D01*
X171674846Y-106839948D01*
X171672162Y-106825683D01*
X171533090Y-106609559D01*
X171320890Y-106464569D01*
X171069000Y-106413560D01*
X169291000Y-106413560D01*
X169055683Y-106457838D01*
X168839559Y-106596910D01*
X168694569Y-106809110D01*
X168643560Y-107061000D01*
X167271440Y-107061000D01*
X167227162Y-106825683D01*
X167088090Y-106609559D01*
X166875890Y-106464569D01*
X166624000Y-106413560D01*
X164846000Y-106413560D01*
X164610683Y-106457838D01*
X164394559Y-106596910D01*
X164249569Y-106809110D01*
X164242809Y-106842494D01*
X164059404Y-106658769D01*
X163499472Y-106426265D01*
X162893188Y-106425736D01*
X162332851Y-106657262D01*
X161903769Y-107085596D01*
X161671265Y-107645528D01*
X161670736Y-108251812D01*
X160137326Y-108251812D01*
X160146757Y-108229100D01*
X160147242Y-107673339D01*
X159935010Y-107159697D01*
X159542370Y-106766371D01*
X159334488Y-106680051D01*
X159540303Y-106595010D01*
X159933629Y-106202370D01*
X160137326Y-105711812D01*
X175005736Y-105711812D01*
X175237262Y-106272149D01*
X175665596Y-106701231D01*
X176225528Y-106933735D01*
X176831812Y-106934264D01*
X177392149Y-106702738D01*
X177821231Y-106274404D01*
X178053735Y-105714472D01*
X178054264Y-105108188D01*
X177822738Y-104547851D01*
X177394404Y-104118769D01*
X176834472Y-103886265D01*
X176228188Y-103885736D01*
X175667851Y-104117262D01*
X175238769Y-104545596D01*
X175006265Y-105105528D01*
X175005736Y-105711812D01*
X160137326Y-105711812D01*
X160146757Y-105689100D01*
X160147242Y-105133339D01*
X159935010Y-104619697D01*
X159542370Y-104226371D01*
X159334488Y-104140051D01*
X159540303Y-104055010D01*
X159933629Y-103662370D01*
X160137326Y-103171812D01*
X160400736Y-103171812D01*
X160632262Y-103732149D01*
X161060596Y-104161231D01*
X161620528Y-104393735D01*
X162226812Y-104394264D01*
X162787149Y-104162738D01*
X163216231Y-103734404D01*
X163448735Y-103174472D01*
X163448737Y-103171812D01*
X168020736Y-103171812D01*
X168252262Y-103732149D01*
X168680596Y-104161231D01*
X169240528Y-104393735D01*
X169846812Y-104394264D01*
X170407149Y-104162738D01*
X170836231Y-103734404D01*
X171068735Y-103174472D01*
X171069264Y-102568188D01*
X170837738Y-102007851D01*
X170409404Y-101578769D01*
X169849472Y-101346265D01*
X169243188Y-101345736D01*
X168682851Y-101577262D01*
X168253769Y-102005596D01*
X168021265Y-102565528D01*
X168020736Y-103171812D01*
X163448737Y-103171812D01*
X163449264Y-102568188D01*
X163217738Y-102007851D01*
X162789404Y-101578769D01*
X162229472Y-101346265D01*
X161623188Y-101345736D01*
X161062851Y-101577262D01*
X160633769Y-102005596D01*
X160401265Y-102565528D01*
X160400736Y-103171812D01*
X160137326Y-103171812D01*
X160146757Y-103149100D01*
X160147242Y-102593339D01*
X159935010Y-102079697D01*
X159542370Y-101686371D01*
X159029100Y-101473243D01*
X158473339Y-101472758D01*
X157959697Y-101684990D01*
X157566371Y-102077630D01*
X157353243Y-102590900D01*
X157352758Y-103146661D01*
X157564990Y-103660303D01*
X157957630Y-104053629D01*
X158165512Y-104139949D01*
X157959697Y-104224990D01*
X157566371Y-104617630D01*
X157353243Y-105130900D01*
X157352758Y-105686661D01*
X157564990Y-106200303D01*
X157957630Y-106593629D01*
X158165512Y-106679949D01*
X157959697Y-106764990D01*
X157566371Y-107157630D01*
X157353243Y-107670900D01*
X157352758Y-108226661D01*
X157564990Y-108740303D01*
X157957630Y-109133629D01*
X157999639Y-109151072D01*
X157887851Y-109197262D01*
X157458769Y-109625596D01*
X157226265Y-110185528D01*
X157225736Y-110791812D01*
X152653737Y-110791812D01*
X152654264Y-110188188D01*
X152422738Y-109627851D01*
X151994404Y-109198769D01*
X151434472Y-108966265D01*
X150828188Y-108965736D01*
X150267851Y-109197262D01*
X149838769Y-109625596D01*
X149606265Y-110185528D01*
X149605736Y-110791812D01*
X149300000Y-110791812D01*
X149300000Y-105680000D01*
X150752560Y-105680000D01*
X150752560Y-107680000D01*
X150796838Y-107915317D01*
X150935910Y-108131441D01*
X151148110Y-108276431D01*
X151400000Y-108327440D01*
X153400000Y-108327440D01*
X153635317Y-108283162D01*
X153851441Y-108144090D01*
X153996431Y-107931890D01*
X154047440Y-107680000D01*
X154047440Y-105680000D01*
X154003162Y-105444683D01*
X153864090Y-105228559D01*
X153721439Y-105131090D01*
X153785278Y-105067363D01*
X154034716Y-104466648D01*
X154035284Y-103816205D01*
X153786894Y-103215057D01*
X153327363Y-102754722D01*
X152726648Y-102505284D01*
X152076205Y-102504716D01*
X151475057Y-102753106D01*
X151014722Y-103212637D01*
X150765284Y-103813352D01*
X150764716Y-104463795D01*
X151013106Y-105064943D01*
X151079621Y-105131574D01*
X150948559Y-105215910D01*
X150803569Y-105428110D01*
X150752560Y-105680000D01*
X149300000Y-105680000D01*
X149300000Y-99996812D01*
X157225736Y-99996812D01*
X157457262Y-100557149D01*
X157885596Y-100986231D01*
X158445528Y-101218735D01*
X159051812Y-101219264D01*
X159612149Y-100987738D01*
X160041231Y-100559404D01*
X160273735Y-99999472D01*
X160273737Y-99996812D01*
X164845736Y-99996812D01*
X165077262Y-100557149D01*
X165505596Y-100986231D01*
X166065528Y-101218735D01*
X166671812Y-101219264D01*
X167232149Y-100987738D01*
X167509370Y-100711000D01*
X171183560Y-100711000D01*
X171183560Y-102489000D01*
X171227838Y-102724317D01*
X171366910Y-102940441D01*
X171579110Y-103085431D01*
X171831000Y-103136440D01*
X173609000Y-103136440D01*
X173844317Y-103092162D01*
X174060441Y-102953090D01*
X174205431Y-102740890D01*
X174212191Y-102707506D01*
X174395596Y-102891231D01*
X174955528Y-103123735D01*
X175561812Y-103124264D01*
X176122149Y-102892738D01*
X176536029Y-102479579D01*
X178469786Y-102479579D01*
X178657408Y-102933657D01*
X179004515Y-103281371D01*
X179458266Y-103469785D01*
X179740030Y-103470031D01*
X179739786Y-103749579D01*
X179927408Y-104203657D01*
X180274515Y-104551371D01*
X180728266Y-104739785D01*
X181219579Y-104740214D01*
X181673657Y-104552592D01*
X182021371Y-104205485D01*
X182209785Y-103751734D01*
X182210031Y-103469970D01*
X182489579Y-103470214D01*
X182943657Y-103282592D01*
X183291371Y-102935485D01*
X183479785Y-102481734D01*
X183480214Y-101990421D01*
X183292592Y-101536343D01*
X182945485Y-101188629D01*
X182491734Y-101000215D01*
X182000421Y-100999786D01*
X181546343Y-101187408D01*
X181198629Y-101534515D01*
X181010215Y-101988266D01*
X181009969Y-102270030D01*
X180939970Y-102269969D01*
X180940214Y-101990421D01*
X180752592Y-101536343D01*
X180405485Y-101188629D01*
X179951734Y-101000215D01*
X179460421Y-100999786D01*
X179006343Y-101187408D01*
X178658629Y-101534515D01*
X178470215Y-101988266D01*
X178469786Y-102479579D01*
X176536029Y-102479579D01*
X176551231Y-102464404D01*
X176783735Y-101904472D01*
X176784264Y-101298188D01*
X176552738Y-100737851D01*
X176124404Y-100308769D01*
X175564472Y-100076265D01*
X174958188Y-100075736D01*
X174397851Y-100307262D01*
X174214846Y-100489948D01*
X174212162Y-100475683D01*
X174073090Y-100259559D01*
X173860890Y-100114569D01*
X173609000Y-100063560D01*
X171831000Y-100063560D01*
X171595683Y-100107838D01*
X171379559Y-100246910D01*
X171234569Y-100459110D01*
X171183560Y-100711000D01*
X167509370Y-100711000D01*
X167661231Y-100559404D01*
X167893735Y-99999472D01*
X167894264Y-99393188D01*
X167662738Y-98832851D01*
X167234404Y-98403769D01*
X166674472Y-98171265D01*
X166068188Y-98170736D01*
X165507851Y-98402262D01*
X165078769Y-98830596D01*
X164846265Y-99390528D01*
X164845736Y-99996812D01*
X160273737Y-99996812D01*
X160274264Y-99393188D01*
X160042738Y-98832851D01*
X159614404Y-98403769D01*
X159054472Y-98171265D01*
X158448188Y-98170736D01*
X157887851Y-98402262D01*
X157458769Y-98830596D01*
X157226265Y-99390528D01*
X157225736Y-99996812D01*
X149300000Y-99996812D01*
X149300000Y-98091812D01*
X149605736Y-98091812D01*
X149837262Y-98652149D01*
X150265596Y-99081231D01*
X150825528Y-99313735D01*
X151431812Y-99314264D01*
X151992149Y-99082738D01*
X152175154Y-98900052D01*
X152177838Y-98914317D01*
X152316910Y-99130441D01*
X152529110Y-99275431D01*
X152781000Y-99326440D01*
X154559000Y-99326440D01*
X154794317Y-99282162D01*
X155010441Y-99143090D01*
X155155431Y-98930890D01*
X155206440Y-98679000D01*
X155206440Y-96901000D01*
X155191540Y-96821812D01*
X157225736Y-96821812D01*
X157457262Y-97382149D01*
X157885596Y-97811231D01*
X158445528Y-98043735D01*
X159051812Y-98044264D01*
X159612149Y-97812738D01*
X160041231Y-97384404D01*
X160273735Y-96824472D01*
X160273737Y-96821812D01*
X164845736Y-96821812D01*
X165077262Y-97382149D01*
X165505596Y-97811231D01*
X166065528Y-98043735D01*
X166671812Y-98044264D01*
X167232149Y-97812738D01*
X167661231Y-97384404D01*
X167893735Y-96824472D01*
X167893737Y-96821812D01*
X170560736Y-96821812D01*
X170792262Y-97382149D01*
X171220596Y-97811231D01*
X171780528Y-98043735D01*
X172386812Y-98044264D01*
X172947149Y-97812738D01*
X173376231Y-97384404D01*
X173608735Y-96824472D01*
X173608737Y-96821812D01*
X175640736Y-96821812D01*
X175872262Y-97382149D01*
X176300596Y-97811231D01*
X176860528Y-98043735D01*
X177466812Y-98044264D01*
X178027149Y-97812738D01*
X178415564Y-97425000D01*
X182502560Y-97425000D01*
X182502560Y-99425000D01*
X182546838Y-99660317D01*
X182685910Y-99876441D01*
X182898110Y-100021431D01*
X183150000Y-100072440D01*
X185150000Y-100072440D01*
X185385317Y-100028162D01*
X185601441Y-99889090D01*
X185746431Y-99676890D01*
X185797440Y-99425000D01*
X185797440Y-97425000D01*
X185753162Y-97189683D01*
X185614090Y-96973559D01*
X185471439Y-96876090D01*
X185535278Y-96812363D01*
X185784716Y-96211648D01*
X185785284Y-95561205D01*
X185536894Y-94960057D01*
X185192241Y-94614801D01*
X185535278Y-94272363D01*
X185784716Y-93671648D01*
X185785284Y-93021205D01*
X185536894Y-92420057D01*
X185077363Y-91959722D01*
X184476648Y-91710284D01*
X183826205Y-91709716D01*
X183225057Y-91958106D01*
X182764722Y-92417637D01*
X182515284Y-93018352D01*
X182514716Y-93668795D01*
X182763106Y-94269943D01*
X183107759Y-94615199D01*
X182764722Y-94957637D01*
X182515284Y-95558352D01*
X182514716Y-96208795D01*
X182763106Y-96809943D01*
X182829621Y-96876574D01*
X182698559Y-96960910D01*
X182553569Y-97173110D01*
X182502560Y-97425000D01*
X178415564Y-97425000D01*
X178456231Y-97384404D01*
X178688735Y-96824472D01*
X178689264Y-96218188D01*
X178457738Y-95657851D01*
X178029404Y-95228769D01*
X177469472Y-94996265D01*
X176863188Y-94995736D01*
X176302851Y-95227262D01*
X175873769Y-95655596D01*
X175641265Y-96215528D01*
X175640736Y-96821812D01*
X173608737Y-96821812D01*
X173609264Y-96218188D01*
X173377738Y-95657851D01*
X172949404Y-95228769D01*
X172389472Y-94996265D01*
X171783188Y-94995736D01*
X171222851Y-95227262D01*
X170793769Y-95655596D01*
X170561265Y-96215528D01*
X170560736Y-96821812D01*
X167893737Y-96821812D01*
X167894264Y-96218188D01*
X167662738Y-95657851D01*
X167234404Y-95228769D01*
X166674472Y-94996265D01*
X166068188Y-94995736D01*
X165507851Y-95227262D01*
X165078769Y-95655596D01*
X164846265Y-96215528D01*
X164845736Y-96821812D01*
X160273737Y-96821812D01*
X160274264Y-96218188D01*
X160042738Y-95657851D01*
X159614404Y-95228769D01*
X159054472Y-94996265D01*
X158448188Y-94995736D01*
X157887851Y-95227262D01*
X157458769Y-95655596D01*
X157226265Y-96215528D01*
X157225736Y-96821812D01*
X155191540Y-96821812D01*
X155162162Y-96665683D01*
X155023090Y-96449559D01*
X154810890Y-96304569D01*
X154559000Y-96253560D01*
X152781000Y-96253560D01*
X152545683Y-96297838D01*
X152329559Y-96436910D01*
X152184569Y-96649110D01*
X152177809Y-96682494D01*
X151994404Y-96498769D01*
X151434472Y-96266265D01*
X150828188Y-96265736D01*
X150267851Y-96497262D01*
X149838769Y-96925596D01*
X149606265Y-97485528D01*
X149605736Y-98091812D01*
X149300000Y-98091812D01*
X149300000Y-93646812D01*
X149605736Y-93646812D01*
X149837262Y-94207149D01*
X150265596Y-94636231D01*
X150825528Y-94868735D01*
X151431812Y-94869264D01*
X151992149Y-94637738D01*
X152421231Y-94209404D01*
X152653735Y-93649472D01*
X152653737Y-93646812D01*
X157225736Y-93646812D01*
X157457262Y-94207149D01*
X157885596Y-94636231D01*
X158445528Y-94868735D01*
X159051812Y-94869264D01*
X159612149Y-94637738D01*
X159702282Y-94547762D01*
X159790596Y-94636231D01*
X160350528Y-94868735D01*
X160956812Y-94869264D01*
X161517149Y-94637738D01*
X161946231Y-94209404D01*
X162178735Y-93649472D01*
X162178737Y-93646812D01*
X166750736Y-93646812D01*
X166982262Y-94207149D01*
X167410596Y-94636231D01*
X167970528Y-94868735D01*
X168576812Y-94869264D01*
X169137149Y-94637738D01*
X169173415Y-94601535D01*
X169229610Y-94639931D01*
X169481500Y-94690940D01*
X170878500Y-94690940D01*
X171113817Y-94646662D01*
X171329941Y-94507590D01*
X171474931Y-94295390D01*
X171478211Y-94279188D01*
X177045417Y-94279188D01*
X177107071Y-94514800D01*
X177607480Y-94690927D01*
X178137199Y-94662148D01*
X178492929Y-94514800D01*
X178497544Y-94497163D01*
X179367443Y-94497163D01*
X179466042Y-94763965D01*
X180075582Y-94990401D01*
X180725377Y-94966341D01*
X181213958Y-94763965D01*
X181312557Y-94497163D01*
X180340000Y-93524605D01*
X179367443Y-94497163D01*
X178497544Y-94497163D01*
X178554583Y-94279188D01*
X177800000Y-93524605D01*
X177045417Y-94279188D01*
X171478211Y-94279188D01*
X171525940Y-94043500D01*
X171525940Y-93152480D01*
X176454073Y-93152480D01*
X176482852Y-93682199D01*
X176630200Y-94037929D01*
X176865812Y-94099583D01*
X177620395Y-93345000D01*
X177979605Y-93345000D01*
X178734188Y-94099583D01*
X178858152Y-94067145D01*
X178921035Y-94218958D01*
X179187837Y-94317557D01*
X180160395Y-93345000D01*
X180519605Y-93345000D01*
X181492163Y-94317557D01*
X181758965Y-94218958D01*
X181985401Y-93609418D01*
X181961341Y-92959623D01*
X181758965Y-92471042D01*
X181492163Y-92372443D01*
X180519605Y-93345000D01*
X180160395Y-93345000D01*
X179187837Y-92372443D01*
X178921035Y-92471042D01*
X178864064Y-92624402D01*
X178734188Y-92590417D01*
X177979605Y-93345000D01*
X177620395Y-93345000D01*
X176865812Y-92590417D01*
X176630200Y-92652071D01*
X176454073Y-93152480D01*
X171525940Y-93152480D01*
X171525940Y-92646500D01*
X171481662Y-92411183D01*
X171481424Y-92410812D01*
X177045417Y-92410812D01*
X177800000Y-93165395D01*
X178554583Y-92410812D01*
X178497545Y-92192837D01*
X179367443Y-92192837D01*
X180340000Y-93165395D01*
X181312557Y-92192837D01*
X181213958Y-91926035D01*
X180604418Y-91699599D01*
X179954623Y-91723659D01*
X179466042Y-91926035D01*
X179367443Y-92192837D01*
X178497545Y-92192837D01*
X178492929Y-92175200D01*
X177992520Y-91999073D01*
X177462801Y-92027852D01*
X177107071Y-92175200D01*
X177045417Y-92410812D01*
X171481424Y-92410812D01*
X171342590Y-92195059D01*
X171130390Y-92050069D01*
X170878500Y-91999060D01*
X169481500Y-91999060D01*
X169246183Y-92043338D01*
X169174827Y-92089254D01*
X169139404Y-92053769D01*
X168579472Y-91821265D01*
X167973188Y-91820736D01*
X167412851Y-92052262D01*
X166983769Y-92480596D01*
X166751265Y-93040528D01*
X166750736Y-93646812D01*
X162178737Y-93646812D01*
X162179264Y-93043188D01*
X161947738Y-92482851D01*
X161519404Y-92053769D01*
X160959472Y-91821265D01*
X160353188Y-91820736D01*
X159792851Y-92052262D01*
X159702718Y-92142238D01*
X159614404Y-92053769D01*
X159054472Y-91821265D01*
X158448188Y-91820736D01*
X157887851Y-92052262D01*
X157458769Y-92480596D01*
X157226265Y-93040528D01*
X157225736Y-93646812D01*
X152653737Y-93646812D01*
X152654264Y-93043188D01*
X152422738Y-92482851D01*
X151994404Y-92053769D01*
X151434472Y-91821265D01*
X150828188Y-91820736D01*
X150267851Y-92052262D01*
X149838769Y-92480596D01*
X149606265Y-93040528D01*
X149605736Y-93646812D01*
X149300000Y-93646812D01*
X149300000Y-90880000D01*
X187250000Y-90880000D01*
X187250000Y-116765000D01*
X187250000Y-116765000D01*
G37*
X187250000Y-116765000D02*
X149300000Y-116765000D01*
X149300000Y-114623795D01*
X157114716Y-114623795D01*
X157363106Y-115224943D01*
X157822637Y-115685278D01*
X158423352Y-115934716D01*
X159073795Y-115935284D01*
X159674943Y-115686894D01*
X160020199Y-115342241D01*
X160362637Y-115685278D01*
X160963352Y-115934716D01*
X161613795Y-115935284D01*
X162214943Y-115686894D01*
X162281574Y-115620379D01*
X162365910Y-115751441D01*
X162578110Y-115896431D01*
X162830000Y-115947440D01*
X164830000Y-115947440D01*
X165065317Y-115903162D01*
X165281441Y-115764090D01*
X165426431Y-115551890D01*
X165477440Y-115300000D01*
X165477440Y-113300000D01*
X165472553Y-113274027D01*
X166101579Y-112645000D01*
X169813420Y-112645000D01*
X169839881Y-112671461D01*
X169255057Y-112913106D01*
X168909801Y-113257759D01*
X168567363Y-112914722D01*
X167966648Y-112665284D01*
X167316205Y-112664716D01*
X166715057Y-112913106D01*
X166254722Y-113372637D01*
X166005284Y-113973352D01*
X166004716Y-114623795D01*
X166253106Y-115224943D01*
X166712637Y-115685278D01*
X167313352Y-115934716D01*
X167963795Y-115935284D01*
X168564943Y-115686894D01*
X168910199Y-115342241D01*
X169252637Y-115685278D01*
X169853352Y-115934716D01*
X170503795Y-115935284D01*
X171104943Y-115686894D01*
X171171574Y-115620379D01*
X171255910Y-115751441D01*
X171468110Y-115896431D01*
X171720000Y-115947440D01*
X173720000Y-115947440D01*
X173955317Y-115903162D01*
X174171441Y-115764090D01*
X174316431Y-115551890D01*
X174367440Y-115300000D01*
X174367440Y-115185000D01*
X174882560Y-115185000D01*
X174882560Y-115300000D01*
X174926838Y-115535317D01*
X175065910Y-115751441D01*
X175278110Y-115896431D01*
X175530000Y-115947440D01*
X177530000Y-115947440D01*
X177765317Y-115903162D01*
X177981441Y-115764090D01*
X178078910Y-115621439D01*
X178142637Y-115685278D01*
X178743352Y-115934716D01*
X179393795Y-115935284D01*
X179994943Y-115686894D01*
X180455278Y-115227363D01*
X180704716Y-114626648D01*
X180704718Y-114623795D01*
X181244716Y-114623795D01*
X181493106Y-115224943D01*
X181952637Y-115685278D01*
X182553352Y-115934716D01*
X183203795Y-115935284D01*
X183804943Y-115686894D01*
X183871574Y-115620379D01*
X183955910Y-115751441D01*
X184168110Y-115896431D01*
X184420000Y-115947440D01*
X186420000Y-115947440D01*
X186655317Y-115903162D01*
X186871441Y-115764090D01*
X187016431Y-115551890D01*
X187067440Y-115300000D01*
X187067440Y-113300000D01*
X187023162Y-113064683D01*
X186884090Y-112848559D01*
X186671890Y-112703569D01*
X186420000Y-112652560D01*
X184420000Y-112652560D01*
X184184683Y-112696838D01*
X183968559Y-112835910D01*
X183871090Y-112978561D01*
X183807363Y-112914722D01*
X183206648Y-112665284D01*
X182556205Y-112664716D01*
X181955057Y-112913106D01*
X181494722Y-113372637D01*
X181245284Y-113973352D01*
X181244716Y-114623795D01*
X180704718Y-114623795D01*
X180705284Y-113976205D01*
X180456894Y-113375057D01*
X179997363Y-112914722D01*
X179396648Y-112665284D01*
X178746205Y-112664716D01*
X178145057Y-112913106D01*
X178078426Y-112979621D01*
X177994090Y-112848559D01*
X177781890Y-112703569D01*
X177530000Y-112652560D01*
X175530000Y-112652560D01*
X175294683Y-112696838D01*
X175078559Y-112835910D01*
X174933569Y-113048110D01*
X174882560Y-113300000D01*
X174882560Y-113415000D01*
X174367440Y-113415000D01*
X174367440Y-113300000D01*
X174323162Y-113064683D01*
X174184090Y-112848559D01*
X173971890Y-112703569D01*
X173720000Y-112652560D01*
X172324139Y-112652560D01*
X170805790Y-111134210D01*
X170518675Y-110942367D01*
X170462484Y-110931190D01*
X170180000Y-110874999D01*
X170179995Y-110875000D01*
X165735005Y-110875000D01*
X165735000Y-110874999D01*
X165452516Y-110931190D01*
X165396325Y-110942367D01*
X165109210Y-111134210D01*
X165109208Y-111134213D01*
X163590860Y-112652560D01*
X162830000Y-112652560D01*
X162594683Y-112696838D01*
X162378559Y-112835910D01*
X162281090Y-112978561D01*
X162217363Y-112914722D01*
X161616648Y-112665284D01*
X160966205Y-112664716D01*
X160365057Y-112913106D01*
X160019801Y-113257759D01*
X159677363Y-112914722D01*
X159076648Y-112665284D01*
X158426205Y-112664716D01*
X157825057Y-112913106D01*
X157364722Y-113372637D01*
X157115284Y-113973352D01*
X157114716Y-114623795D01*
X149300000Y-114623795D01*
X149300000Y-110791812D01*
X149605736Y-110791812D01*
X149837262Y-111352149D01*
X150265596Y-111781231D01*
X150825528Y-112013735D01*
X151431812Y-112014264D01*
X151992149Y-111782738D01*
X152421231Y-111354404D01*
X152653735Y-110794472D01*
X152653737Y-110791812D01*
X157225736Y-110791812D01*
X157457262Y-111352149D01*
X157885596Y-111781231D01*
X158445528Y-112013735D01*
X159051812Y-112014264D01*
X159612149Y-111782738D01*
X160041231Y-111354404D01*
X160273735Y-110794472D01*
X160273737Y-110791812D01*
X175005736Y-110791812D01*
X175237262Y-111352149D01*
X175665596Y-111781231D01*
X176225528Y-112013735D01*
X176831812Y-112014264D01*
X177392149Y-111782738D01*
X177821231Y-111354404D01*
X178053735Y-110794472D01*
X178054264Y-110188188D01*
X177822738Y-109627851D01*
X177394404Y-109198769D01*
X176834472Y-108966265D01*
X176228188Y-108965736D01*
X175667851Y-109197262D01*
X175238769Y-109625596D01*
X175006265Y-110185528D01*
X175005736Y-110791812D01*
X160273737Y-110791812D01*
X160274264Y-110188188D01*
X160042738Y-109627851D01*
X159614404Y-109198769D01*
X159500481Y-109151464D01*
X159540303Y-109135010D01*
X159933629Y-108742370D01*
X160137326Y-108251812D01*
X161670736Y-108251812D01*
X161902262Y-108812149D01*
X162330596Y-109241231D01*
X162890528Y-109473735D01*
X163496812Y-109474264D01*
X164057149Y-109242738D01*
X164240154Y-109060052D01*
X164242838Y-109074317D01*
X164381910Y-109290441D01*
X164594110Y-109435431D01*
X164846000Y-109486440D01*
X166624000Y-109486440D01*
X166859317Y-109442162D01*
X167075441Y-109303090D01*
X167220431Y-109090890D01*
X167271440Y-108839000D01*
X167271440Y-107061000D01*
X168643560Y-107061000D01*
X168643560Y-108839000D01*
X168687838Y-109074317D01*
X168826910Y-109290441D01*
X169039110Y-109435431D01*
X169291000Y-109486440D01*
X171069000Y-109486440D01*
X171304317Y-109442162D01*
X171520441Y-109303090D01*
X171665431Y-109090890D01*
X171672191Y-109057506D01*
X171855596Y-109241231D01*
X172415528Y-109473735D01*
X173021812Y-109474264D01*
X173582149Y-109242738D01*
X173996029Y-108829579D01*
X178469786Y-108829579D01*
X178657408Y-109283657D01*
X179004515Y-109631371D01*
X179458266Y-109819785D01*
X179949579Y-109820214D01*
X180403657Y-109632592D01*
X180751371Y-109285485D01*
X180939785Y-108831734D01*
X180940031Y-108549970D01*
X181010030Y-108550031D01*
X181009786Y-108829579D01*
X181197408Y-109283657D01*
X181544515Y-109631371D01*
X181998266Y-109819785D01*
X182489579Y-109820214D01*
X182943657Y-109632592D01*
X183291371Y-109285485D01*
X183479785Y-108831734D01*
X183480214Y-108340421D01*
X183292592Y-107886343D01*
X182945485Y-107538629D01*
X182491734Y-107350215D01*
X182209970Y-107349969D01*
X182210214Y-107070421D01*
X182022592Y-106616343D01*
X181675485Y-106268629D01*
X181221734Y-106080215D01*
X180730421Y-106079786D01*
X180276343Y-106267408D01*
X179928629Y-106614515D01*
X179740215Y-107068266D01*
X179739969Y-107350030D01*
X179460421Y-107349786D01*
X179006343Y-107537408D01*
X178658629Y-107884515D01*
X178470215Y-108338266D01*
X178469786Y-108829579D01*
X173996029Y-108829579D01*
X174011231Y-108814404D01*
X174243735Y-108254472D01*
X174244264Y-107648188D01*
X174012738Y-107087851D01*
X173584404Y-106658769D01*
X173024472Y-106426265D01*
X172418188Y-106425736D01*
X171857851Y-106657262D01*
X171674846Y-106839948D01*
X171672162Y-106825683D01*
X171533090Y-106609559D01*
X171320890Y-106464569D01*
X171069000Y-106413560D01*
X169291000Y-106413560D01*
X169055683Y-106457838D01*
X168839559Y-106596910D01*
X168694569Y-106809110D01*
X168643560Y-107061000D01*
X167271440Y-107061000D01*
X167227162Y-106825683D01*
X167088090Y-106609559D01*
X166875890Y-106464569D01*
X166624000Y-106413560D01*
X164846000Y-106413560D01*
X164610683Y-106457838D01*
X164394559Y-106596910D01*
X164249569Y-106809110D01*
X164242809Y-106842494D01*
X164059404Y-106658769D01*
X163499472Y-106426265D01*
X162893188Y-106425736D01*
X162332851Y-106657262D01*
X161903769Y-107085596D01*
X161671265Y-107645528D01*
X161670736Y-108251812D01*
X160137326Y-108251812D01*
X160146757Y-108229100D01*
X160147242Y-107673339D01*
X159935010Y-107159697D01*
X159542370Y-106766371D01*
X159334488Y-106680051D01*
X159540303Y-106595010D01*
X159933629Y-106202370D01*
X160137326Y-105711812D01*
X175005736Y-105711812D01*
X175237262Y-106272149D01*
X175665596Y-106701231D01*
X176225528Y-106933735D01*
X176831812Y-106934264D01*
X177392149Y-106702738D01*
X177821231Y-106274404D01*
X178053735Y-105714472D01*
X178054264Y-105108188D01*
X177822738Y-104547851D01*
X177394404Y-104118769D01*
X176834472Y-103886265D01*
X176228188Y-103885736D01*
X175667851Y-104117262D01*
X175238769Y-104545596D01*
X175006265Y-105105528D01*
X175005736Y-105711812D01*
X160137326Y-105711812D01*
X160146757Y-105689100D01*
X160147242Y-105133339D01*
X159935010Y-104619697D01*
X159542370Y-104226371D01*
X159334488Y-104140051D01*
X159540303Y-104055010D01*
X159933629Y-103662370D01*
X160137326Y-103171812D01*
X160400736Y-103171812D01*
X160632262Y-103732149D01*
X161060596Y-104161231D01*
X161620528Y-104393735D01*
X162226812Y-104394264D01*
X162787149Y-104162738D01*
X163216231Y-103734404D01*
X163448735Y-103174472D01*
X163448737Y-103171812D01*
X168020736Y-103171812D01*
X168252262Y-103732149D01*
X168680596Y-104161231D01*
X169240528Y-104393735D01*
X169846812Y-104394264D01*
X170407149Y-104162738D01*
X170836231Y-103734404D01*
X171068735Y-103174472D01*
X171069264Y-102568188D01*
X170837738Y-102007851D01*
X170409404Y-101578769D01*
X169849472Y-101346265D01*
X169243188Y-101345736D01*
X168682851Y-101577262D01*
X168253769Y-102005596D01*
X168021265Y-102565528D01*
X168020736Y-103171812D01*
X163448737Y-103171812D01*
X163449264Y-102568188D01*
X163217738Y-102007851D01*
X162789404Y-101578769D01*
X162229472Y-101346265D01*
X161623188Y-101345736D01*
X161062851Y-101577262D01*
X160633769Y-102005596D01*
X160401265Y-102565528D01*
X160400736Y-103171812D01*
X160137326Y-103171812D01*
X160146757Y-103149100D01*
X160147242Y-102593339D01*
X159935010Y-102079697D01*
X159542370Y-101686371D01*
X159029100Y-101473243D01*
X158473339Y-101472758D01*
X157959697Y-101684990D01*
X157566371Y-102077630D01*
X157353243Y-102590900D01*
X157352758Y-103146661D01*
X157564990Y-103660303D01*
X157957630Y-104053629D01*
X158165512Y-104139949D01*
X157959697Y-104224990D01*
X157566371Y-104617630D01*
X157353243Y-105130900D01*
X157352758Y-105686661D01*
X157564990Y-106200303D01*
X157957630Y-106593629D01*
X158165512Y-106679949D01*
X157959697Y-106764990D01*
X157566371Y-107157630D01*
X157353243Y-107670900D01*
X157352758Y-108226661D01*
X157564990Y-108740303D01*
X157957630Y-109133629D01*
X157999639Y-109151072D01*
X157887851Y-109197262D01*
X157458769Y-109625596D01*
X157226265Y-110185528D01*
X157225736Y-110791812D01*
X152653737Y-110791812D01*
X152654264Y-110188188D01*
X152422738Y-109627851D01*
X151994404Y-109198769D01*
X151434472Y-108966265D01*
X150828188Y-108965736D01*
X150267851Y-109197262D01*
X149838769Y-109625596D01*
X149606265Y-110185528D01*
X149605736Y-110791812D01*
X149300000Y-110791812D01*
X149300000Y-105680000D01*
X150752560Y-105680000D01*
X150752560Y-107680000D01*
X150796838Y-107915317D01*
X150935910Y-108131441D01*
X151148110Y-108276431D01*
X151400000Y-108327440D01*
X153400000Y-108327440D01*
X153635317Y-108283162D01*
X153851441Y-108144090D01*
X153996431Y-107931890D01*
X154047440Y-107680000D01*
X154047440Y-105680000D01*
X154003162Y-105444683D01*
X153864090Y-105228559D01*
X153721439Y-105131090D01*
X153785278Y-105067363D01*
X154034716Y-104466648D01*
X154035284Y-103816205D01*
X153786894Y-103215057D01*
X153327363Y-102754722D01*
X152726648Y-102505284D01*
X152076205Y-102504716D01*
X151475057Y-102753106D01*
X151014722Y-103212637D01*
X150765284Y-103813352D01*
X150764716Y-104463795D01*
X151013106Y-105064943D01*
X151079621Y-105131574D01*
X150948559Y-105215910D01*
X150803569Y-105428110D01*
X150752560Y-105680000D01*
X149300000Y-105680000D01*
X149300000Y-99996812D01*
X157225736Y-99996812D01*
X157457262Y-100557149D01*
X157885596Y-100986231D01*
X158445528Y-101218735D01*
X159051812Y-101219264D01*
X159612149Y-100987738D01*
X160041231Y-100559404D01*
X160273735Y-99999472D01*
X160273737Y-99996812D01*
X164845736Y-99996812D01*
X165077262Y-100557149D01*
X165505596Y-100986231D01*
X166065528Y-101218735D01*
X166671812Y-101219264D01*
X167232149Y-100987738D01*
X167509370Y-100711000D01*
X171183560Y-100711000D01*
X171183560Y-102489000D01*
X171227838Y-102724317D01*
X171366910Y-102940441D01*
X171579110Y-103085431D01*
X171831000Y-103136440D01*
X173609000Y-103136440D01*
X173844317Y-103092162D01*
X174060441Y-102953090D01*
X174205431Y-102740890D01*
X174212191Y-102707506D01*
X174395596Y-102891231D01*
X174955528Y-103123735D01*
X175561812Y-103124264D01*
X176122149Y-102892738D01*
X176536029Y-102479579D01*
X178469786Y-102479579D01*
X178657408Y-102933657D01*
X179004515Y-103281371D01*
X179458266Y-103469785D01*
X179740030Y-103470031D01*
X179739786Y-103749579D01*
X179927408Y-104203657D01*
X180274515Y-104551371D01*
X180728266Y-104739785D01*
X181219579Y-104740214D01*
X181673657Y-104552592D01*
X182021371Y-104205485D01*
X182209785Y-103751734D01*
X182210031Y-103469970D01*
X182489579Y-103470214D01*
X182943657Y-103282592D01*
X183291371Y-102935485D01*
X183479785Y-102481734D01*
X183480214Y-101990421D01*
X183292592Y-101536343D01*
X182945485Y-101188629D01*
X182491734Y-101000215D01*
X182000421Y-100999786D01*
X181546343Y-101187408D01*
X181198629Y-101534515D01*
X181010215Y-101988266D01*
X181009969Y-102270030D01*
X180939970Y-102269969D01*
X180940214Y-101990421D01*
X180752592Y-101536343D01*
X180405485Y-101188629D01*
X179951734Y-101000215D01*
X179460421Y-100999786D01*
X179006343Y-101187408D01*
X178658629Y-101534515D01*
X178470215Y-101988266D01*
X178469786Y-102479579D01*
X176536029Y-102479579D01*
X176551231Y-102464404D01*
X176783735Y-101904472D01*
X176784264Y-101298188D01*
X176552738Y-100737851D01*
X176124404Y-100308769D01*
X175564472Y-100076265D01*
X174958188Y-100075736D01*
X174397851Y-100307262D01*
X174214846Y-100489948D01*
X174212162Y-100475683D01*
X174073090Y-100259559D01*
X173860890Y-100114569D01*
X173609000Y-100063560D01*
X171831000Y-100063560D01*
X171595683Y-100107838D01*
X171379559Y-100246910D01*
X171234569Y-100459110D01*
X171183560Y-100711000D01*
X167509370Y-100711000D01*
X167661231Y-100559404D01*
X167893735Y-99999472D01*
X167894264Y-99393188D01*
X167662738Y-98832851D01*
X167234404Y-98403769D01*
X166674472Y-98171265D01*
X166068188Y-98170736D01*
X165507851Y-98402262D01*
X165078769Y-98830596D01*
X164846265Y-99390528D01*
X164845736Y-99996812D01*
X160273737Y-99996812D01*
X160274264Y-99393188D01*
X160042738Y-98832851D01*
X159614404Y-98403769D01*
X159054472Y-98171265D01*
X158448188Y-98170736D01*
X157887851Y-98402262D01*
X157458769Y-98830596D01*
X157226265Y-99390528D01*
X157225736Y-99996812D01*
X149300000Y-99996812D01*
X149300000Y-98091812D01*
X149605736Y-98091812D01*
X149837262Y-98652149D01*
X150265596Y-99081231D01*
X150825528Y-99313735D01*
X151431812Y-99314264D01*
X151992149Y-99082738D01*
X152175154Y-98900052D01*
X152177838Y-98914317D01*
X152316910Y-99130441D01*
X152529110Y-99275431D01*
X152781000Y-99326440D01*
X154559000Y-99326440D01*
X154794317Y-99282162D01*
X155010441Y-99143090D01*
X155155431Y-98930890D01*
X155206440Y-98679000D01*
X155206440Y-96901000D01*
X155191540Y-96821812D01*
X157225736Y-96821812D01*
X157457262Y-97382149D01*
X157885596Y-97811231D01*
X158445528Y-98043735D01*
X159051812Y-98044264D01*
X159612149Y-97812738D01*
X160041231Y-97384404D01*
X160273735Y-96824472D01*
X160273737Y-96821812D01*
X164845736Y-96821812D01*
X165077262Y-97382149D01*
X165505596Y-97811231D01*
X166065528Y-98043735D01*
X166671812Y-98044264D01*
X167232149Y-97812738D01*
X167661231Y-97384404D01*
X167893735Y-96824472D01*
X167893737Y-96821812D01*
X170560736Y-96821812D01*
X170792262Y-97382149D01*
X171220596Y-97811231D01*
X171780528Y-98043735D01*
X172386812Y-98044264D01*
X172947149Y-97812738D01*
X173376231Y-97384404D01*
X173608735Y-96824472D01*
X173608737Y-96821812D01*
X175640736Y-96821812D01*
X175872262Y-97382149D01*
X176300596Y-97811231D01*
X176860528Y-98043735D01*
X177466812Y-98044264D01*
X178027149Y-97812738D01*
X178415564Y-97425000D01*
X182502560Y-97425000D01*
X182502560Y-99425000D01*
X182546838Y-99660317D01*
X182685910Y-99876441D01*
X182898110Y-100021431D01*
X183150000Y-100072440D01*
X185150000Y-100072440D01*
X185385317Y-100028162D01*
X185601441Y-99889090D01*
X185746431Y-99676890D01*
X185797440Y-99425000D01*
X185797440Y-97425000D01*
X185753162Y-97189683D01*
X185614090Y-96973559D01*
X185471439Y-96876090D01*
X185535278Y-96812363D01*
X185784716Y-96211648D01*
X185785284Y-95561205D01*
X185536894Y-94960057D01*
X185192241Y-94614801D01*
X185535278Y-94272363D01*
X185784716Y-93671648D01*
X185785284Y-93021205D01*
X185536894Y-92420057D01*
X185077363Y-91959722D01*
X184476648Y-91710284D01*
X183826205Y-91709716D01*
X183225057Y-91958106D01*
X182764722Y-92417637D01*
X182515284Y-93018352D01*
X182514716Y-93668795D01*
X182763106Y-94269943D01*
X183107759Y-94615199D01*
X182764722Y-94957637D01*
X182515284Y-95558352D01*
X182514716Y-96208795D01*
X182763106Y-96809943D01*
X182829621Y-96876574D01*
X182698559Y-96960910D01*
X182553569Y-97173110D01*
X182502560Y-97425000D01*
X178415564Y-97425000D01*
X178456231Y-97384404D01*
X178688735Y-96824472D01*
X178689264Y-96218188D01*
X178457738Y-95657851D01*
X178029404Y-95228769D01*
X177469472Y-94996265D01*
X176863188Y-94995736D01*
X176302851Y-95227262D01*
X175873769Y-95655596D01*
X175641265Y-96215528D01*
X175640736Y-96821812D01*
X173608737Y-96821812D01*
X173609264Y-96218188D01*
X173377738Y-95657851D01*
X172949404Y-95228769D01*
X172389472Y-94996265D01*
X171783188Y-94995736D01*
X171222851Y-95227262D01*
X170793769Y-95655596D01*
X170561265Y-96215528D01*
X170560736Y-96821812D01*
X167893737Y-96821812D01*
X167894264Y-96218188D01*
X167662738Y-95657851D01*
X167234404Y-95228769D01*
X166674472Y-94996265D01*
X166068188Y-94995736D01*
X165507851Y-95227262D01*
X165078769Y-95655596D01*
X164846265Y-96215528D01*
X164845736Y-96821812D01*
X160273737Y-96821812D01*
X160274264Y-96218188D01*
X160042738Y-95657851D01*
X159614404Y-95228769D01*
X159054472Y-94996265D01*
X158448188Y-94995736D01*
X157887851Y-95227262D01*
X157458769Y-95655596D01*
X157226265Y-96215528D01*
X157225736Y-96821812D01*
X155191540Y-96821812D01*
X155162162Y-96665683D01*
X155023090Y-96449559D01*
X154810890Y-96304569D01*
X154559000Y-96253560D01*
X152781000Y-96253560D01*
X152545683Y-96297838D01*
X152329559Y-96436910D01*
X152184569Y-96649110D01*
X152177809Y-96682494D01*
X151994404Y-96498769D01*
X151434472Y-96266265D01*
X150828188Y-96265736D01*
X150267851Y-96497262D01*
X149838769Y-96925596D01*
X149606265Y-97485528D01*
X149605736Y-98091812D01*
X149300000Y-98091812D01*
X149300000Y-93646812D01*
X149605736Y-93646812D01*
X149837262Y-94207149D01*
X150265596Y-94636231D01*
X150825528Y-94868735D01*
X151431812Y-94869264D01*
X151992149Y-94637738D01*
X152421231Y-94209404D01*
X152653735Y-93649472D01*
X152653737Y-93646812D01*
X157225736Y-93646812D01*
X157457262Y-94207149D01*
X157885596Y-94636231D01*
X158445528Y-94868735D01*
X159051812Y-94869264D01*
X159612149Y-94637738D01*
X159702282Y-94547762D01*
X159790596Y-94636231D01*
X160350528Y-94868735D01*
X160956812Y-94869264D01*
X161517149Y-94637738D01*
X161946231Y-94209404D01*
X162178735Y-93649472D01*
X162178737Y-93646812D01*
X166750736Y-93646812D01*
X166982262Y-94207149D01*
X167410596Y-94636231D01*
X167970528Y-94868735D01*
X168576812Y-94869264D01*
X169137149Y-94637738D01*
X169173415Y-94601535D01*
X169229610Y-94639931D01*
X169481500Y-94690940D01*
X170878500Y-94690940D01*
X171113817Y-94646662D01*
X171329941Y-94507590D01*
X171474931Y-94295390D01*
X171478211Y-94279188D01*
X177045417Y-94279188D01*
X177107071Y-94514800D01*
X177607480Y-94690927D01*
X178137199Y-94662148D01*
X178492929Y-94514800D01*
X178497544Y-94497163D01*
X179367443Y-94497163D01*
X179466042Y-94763965D01*
X180075582Y-94990401D01*
X180725377Y-94966341D01*
X181213958Y-94763965D01*
X181312557Y-94497163D01*
X180340000Y-93524605D01*
X179367443Y-94497163D01*
X178497544Y-94497163D01*
X178554583Y-94279188D01*
X177800000Y-93524605D01*
X177045417Y-94279188D01*
X171478211Y-94279188D01*
X171525940Y-94043500D01*
X171525940Y-93152480D01*
X176454073Y-93152480D01*
X176482852Y-93682199D01*
X176630200Y-94037929D01*
X176865812Y-94099583D01*
X177620395Y-93345000D01*
X177979605Y-93345000D01*
X178734188Y-94099583D01*
X178858152Y-94067145D01*
X178921035Y-94218958D01*
X179187837Y-94317557D01*
X180160395Y-93345000D01*
X180519605Y-93345000D01*
X181492163Y-94317557D01*
X181758965Y-94218958D01*
X181985401Y-93609418D01*
X181961341Y-92959623D01*
X181758965Y-92471042D01*
X181492163Y-92372443D01*
X180519605Y-93345000D01*
X180160395Y-93345000D01*
X179187837Y-92372443D01*
X178921035Y-92471042D01*
X178864064Y-92624402D01*
X178734188Y-92590417D01*
X177979605Y-93345000D01*
X177620395Y-93345000D01*
X176865812Y-92590417D01*
X176630200Y-92652071D01*
X176454073Y-93152480D01*
X171525940Y-93152480D01*
X171525940Y-92646500D01*
X171481662Y-92411183D01*
X171481424Y-92410812D01*
X177045417Y-92410812D01*
X177800000Y-93165395D01*
X178554583Y-92410812D01*
X178497545Y-92192837D01*
X179367443Y-92192837D01*
X180340000Y-93165395D01*
X181312557Y-92192837D01*
X181213958Y-91926035D01*
X180604418Y-91699599D01*
X179954623Y-91723659D01*
X179466042Y-91926035D01*
X179367443Y-92192837D01*
X178497545Y-92192837D01*
X178492929Y-92175200D01*
X177992520Y-91999073D01*
X177462801Y-92027852D01*
X177107071Y-92175200D01*
X177045417Y-92410812D01*
X171481424Y-92410812D01*
X171342590Y-92195059D01*
X171130390Y-92050069D01*
X170878500Y-91999060D01*
X169481500Y-91999060D01*
X169246183Y-92043338D01*
X169174827Y-92089254D01*
X169139404Y-92053769D01*
X168579472Y-91821265D01*
X167973188Y-91820736D01*
X167412851Y-92052262D01*
X166983769Y-92480596D01*
X166751265Y-93040528D01*
X166750736Y-93646812D01*
X162178737Y-93646812D01*
X162179264Y-93043188D01*
X161947738Y-92482851D01*
X161519404Y-92053769D01*
X160959472Y-91821265D01*
X160353188Y-91820736D01*
X159792851Y-92052262D01*
X159702718Y-92142238D01*
X159614404Y-92053769D01*
X159054472Y-91821265D01*
X158448188Y-91820736D01*
X157887851Y-92052262D01*
X157458769Y-92480596D01*
X157226265Y-93040528D01*
X157225736Y-93646812D01*
X152653737Y-93646812D01*
X152654264Y-93043188D01*
X152422738Y-92482851D01*
X151994404Y-92053769D01*
X151434472Y-91821265D01*
X150828188Y-91820736D01*
X150267851Y-92052262D01*
X149838769Y-92480596D01*
X149606265Y-93040528D01*
X149605736Y-93646812D01*
X149300000Y-93646812D01*
X149300000Y-90880000D01*
X187250000Y-90880000D01*
X187250000Y-116765000D01*
M02*
